<svg width="273" height="1722" viewBox="0 0 273 1722" xmlns="http://www.w3.org/2000/svg" xmlns:xlink="http://www.w3.org/1999/xlink"><title>landing lages icons</title><defs><path d="M.579.535h21.973" id="aa"/><path d="M.899.145H22.87" id="ac"/><path d="M3.092 19.219C1.71 19.219.58 18.114.58 16.767V3.444c0-1.348 1.13-2.452 2.513-2.452 1.384 0 2.516 1.104 2.516 2.452v13.323c0 1.347-1.132 2.452-2.516 2.452z" id="ae"/><path d="M.579 16.767V3.444c0-1.348 1.13-2.452 2.513-2.452 1.384 0 2.516 1.104 2.516 2.452v13.323c0 1.347-1.132 2.452-2.516 2.452-1.382 0-2.513-1.105-2.513-2.452z" id="ag"/><path d="M2.571 19.219c-1.383 0-2.514-1.105-2.514-2.452V3.444C.057 2.096 1.188.992 2.571.992c1.384 0 2.516 1.104 2.516 2.452v13.323c0 1.347-1.132 2.452-2.516 2.452z" id="ai"/><path d="M.057 16.767V3.444C.057 2.096 1.188.992 2.571.992c1.384 0 2.516 1.104 2.516 2.452v13.323c0 1.347-1.132 2.452-2.516 2.452-1.383 0-2.514-1.105-2.514-2.452z" id="ak"/><path d="M2.564 14.702C1.18 14.702.05 13.598.05 12.25V2.47C.05 1.122 1.18.019 2.564.019c1.383 0 2.515 1.103 2.515 2.45v9.782c0 1.347-1.132 2.45-2.515 2.45z" id="am"/><path d="M.05 12.25V2.47C.05 1.122 1.18.019 2.564.019c1.383 0 2.515 1.103 2.515 2.45v9.782c0 1.347-1.132 2.45-2.515 2.45-1.384 0-2.514-1.103-2.514-2.45z" id="ao"/><path d="M.513 12.25V2.47C.513 1.122 1.645.019 3.028.019c1.382 0 2.515 1.103 2.515 2.45v9.782c0 1.347-1.133 2.45-2.515 2.45-1.383 0-2.515-1.103-2.515-2.45z" id="aq"/><path d="M.513 12.25V2.47C.513 1.122 1.645.019 3.028.019c1.382 0 2.515 1.103 2.515 2.45v9.782c0 1.347-1.133 2.45-2.515 2.45-1.383 0-2.515-1.103-2.515-2.45z" id="as"/><path d="M4.35 2.63c0 .959-.804 1.735-1.796 1.735S.758 3.59.758 2.63c0-.958.804-1.733 1.796-1.733S4.35 1.672 4.35 2.63z" id="au"/><path d="M2.554 4.365C1.562 4.365.758 3.59.758 2.63c0-.958.804-1.733 1.796-1.733S4.35 1.672 4.35 2.63c0 .959-.804 1.735-1.796 1.735z" id="aw"/><path d="M3.633 2.405c0 .958-.805 1.734-1.796 1.734S.043 3.363.043 2.405.846.67 1.837.67s1.796.776 1.796 1.734z" id="ay"/><path d="M3.633 2.405c0 .958-.805 1.734-1.796 1.734S.043 3.363.043 2.405.846.67 1.837.67s1.796.776 1.796 1.734z" id="aA"/><path d="M.736 27.706a.333.333 0 0 1-.332-.334V1.19c0-.183.15-.333.332-.333h9.996c.182 0 .331.15.331.333v26.183c0 .184-.149.334-.331.334H.736z" id="aC"/><path d="M.404.102h4.892" id="aE"/><path d="M.404.13h4.892" id="aG"/><path d="M.404.16h4.892" id="aI"/><path d="M.404.188h4.892" id="aK"/><path d="M.404.218h4.892" id="aM"/><path d="M.404.247h4.892" id="aO"/><path d="M.404.276h4.892" id="aQ"/><path d="M.404.306h4.892" id="aS"/><path d="M.404.335h4.892" id="aU"/><path d="M.404.307h4.892" id="aW"/><path d="M8.17 24.328a2.937 2.937 0 0 0 2.952 2.944 2.935 2.935 0 0 0 2.925-2.97 2.939 2.939 0 0 0-5.877.026zM3.243.361l6.42 19.51c.434-.064.84-.16 1.25-.177 2.498-.098 4.512 1.67 4.795 4.188.264 2.345-1.416 4.564-3.792 5.008-2.24.419-4.47-.909-5.203-3.128-2.147-6.499-4.286-13-6.42-19.503C-.482 3.891.71 1.35 3.002.446c.072-.029.146-.052.242-.085z" id="aY"/><path d="M1.299.95a.586.586 0 0 1-.588.599.59.59 0 0 1-.597-.593.602.602 0 0 1 .583-.593.595.595 0 0 1 .602.587z" id="ba"/><path d="M.457 27.408a.34.34 0 0 1-.338-.34V.495a.34.34 0 0 1 .338-.34h10.196a.34.34 0 0 1 .338.34V27.07a.34.34 0 0 1-.338.339H.457z" id="bc"/><path d="M.119.577h4.99" id="be"/><path d="M.119.606h4.99" id="bg"/><path d="M.119.636h4.99" id="bi"/><path d="M.119.667h4.99" id="bk"/><path d="M.119.696h4.99" id="bm"/><path d="M.119.725h4.99" id="bo"/><path d="M.119.754h4.99" id="bq"/><path d="M.119.784h4.99" id="bs"/><path d="M.119.815h4.99" id="bu"/><path d="M.119.785h4.99" id="bw"/><path d="M8.848 24.783a2.988 2.988 0 0 0 3.01 2.988 2.986 2.986 0 0 0 2.984-3.014 2.987 2.987 0 0 0-2.996-2.976 2.99 2.99 0 0 0-2.998 3.002zM3.822.456c2.186 6.613 4.37 13.218 6.55 19.803.441-.065.856-.163 1.273-.18 2.548-.1 4.603 1.694 4.891 4.251.27 2.38-1.443 4.633-3.867 5.083-2.285.425-4.56-.922-5.307-3.175C5.172 19.642 2.99 13.043.814 6.443a4.732 4.732 0 0 1 2.761-5.9c.074-.03.15-.053.247-.087z" id="by"/><path d="M5.215 11.133a2.992 2.992 0 0 0 3.004-2.99 2.992 2.992 0 0 0-2.995-3 3 3 0 0 0-3.01 2.99 3 3 0 0 0 3 3zm1.473-7.496L7.675.659c.049.128.079.194.101.264C8.552 3.28 9.33 5.636 10.1 7.995a.58.58 0 0 1 .02.327c-.15.49-.305.979-.482 1.46a4.712 4.712 0 0 1-4.876 3.044A4.714 4.714 0 0 1 .579 8.913 4.691 4.691 0 0 1 5.66 3.45c.338.031.67.12 1.028.187z" id="bA"/><path d="M.579.535h21.973" id="bC"/><path d="M.107.145h21.972" id="bE"/><path d="M3.092 18.427C1.71 18.427.58 17.322.58 15.975V2.652C.579 1.304 1.709.2 3.092.2c1.384 0 2.516 1.104 2.516 2.452v13.323c0 1.347-1.132 2.452-2.516 2.452z" id="bG"/><path d="M.579 15.975V2.652C.579 1.304 1.709.2 3.092.2c1.384 0 2.516 1.104 2.516 2.452v13.323c0 1.347-1.132 2.452-2.516 2.452-1.382 0-2.513-1.105-2.513-2.452z" id="bI"/><path d="M2.779 18.427c-1.383 0-2.514-1.105-2.514-2.452V2.652C.265 1.304 1.396.2 2.78.2c1.384 0 2.516 1.104 2.516 2.452v13.323c0 1.347-1.132 2.452-2.516 2.452z" id="bK"/><path d="M.265 15.975V2.652C.265 1.304 1.396.2 2.78.2c1.384 0 2.516 1.104 2.516 2.452v13.323c0 1.347-1.132 2.452-2.516 2.452-1.383 0-2.514-1.105-2.514-2.452z" id="bM"/><path d="M2.772 14.702c-1.384 0-2.515-1.104-2.515-2.451V2.47C.257 1.122 1.388.019 2.772.019c1.383 0 2.515 1.103 2.515 2.45v9.782c0 1.347-1.132 2.45-2.515 2.45z" id="bO"/><path d="M.257 12.25V2.47C.257 1.122 1.388.019 2.772.019c1.383 0 2.515 1.103 2.515 2.45v9.782c0 1.347-1.132 2.45-2.515 2.45-1.384 0-2.515-1.103-2.515-2.45z" id="bQ"/><path d="M.513 12.25V2.47C.513 1.122 1.645.019 3.028.019c1.382 0 2.515 1.103 2.515 2.45v9.782c0 1.347-1.133 2.45-2.515 2.45-1.383 0-2.515-1.103-2.515-2.45z" id="bS"/><path d="M.513 12.25V2.47C.513 1.122 1.645.019 3.028.019c1.382 0 2.515 1.103 2.515 2.45v9.782c0 1.347-1.133 2.45-2.515 2.45-1.383 0-2.515-1.103-2.515-2.45z" id="bU"/><path d="M4.35 1.838c0 .958-.804 1.735-1.796 1.735S.758 2.796.758 1.838C.758.88 1.562.105 2.554.105S4.35.88 4.35 1.838z" id="bW"/><path d="M2.554 3.573c-.992 0-1.796-.777-1.796-1.735C.758.88 1.562.105 2.554.105S4.35.88 4.35 1.838c0 .958-.804 1.735-1.796 1.735z" id="bY"/><path d="M3.633 2.405c0 .958-.805 1.734-1.796 1.734S.043 3.363.043 2.405.846.67 1.837.67s1.796.776 1.796 1.734z" id="ca"/><path d="M3.633 2.405c0 .958-.805 1.734-1.796 1.734S.043 3.363.043 2.405.846.67 1.837.67s1.796.776 1.796 1.734z" id="cc"/><path d="M.434.401h16.48" id="ce"/><path d="M.674.109h16.48" id="cg"/><path d="M2.32 14.414c-1.038 0-1.886-.828-1.886-1.839V2.583c0-1.011.848-1.839 1.885-1.839 1.038 0 1.887.828 1.887 1.84v9.991c0 1.01-.849 1.84-1.887 1.84z" id="ci"/><path d="M.434 12.575V2.583c0-1.011.848-1.839 1.885-1.839 1.038 0 1.887.828 1.887 1.84v9.991c0 1.01-.849 1.84-1.887 1.84-1.037 0-1.885-.83-1.885-1.84z" id="ck"/><path d="M2.678 14.414c-1.037 0-1.885-.828-1.885-1.839V2.583c0-1.011.848-1.839 1.885-1.839 1.038 0 1.887.828 1.887 1.84v9.991c0 1.01-.849 1.84-1.887 1.84z" id="cm"/><path d="M.793 12.575V2.583c0-1.011.848-1.839 1.885-1.839 1.038 0 1.887.828 1.887 1.84v9.991c0 1.01-.849 1.84-1.887 1.84-1.037 0-1.885-.83-1.885-1.84z" id="co"/><path d="M2.673 11.026c-1.038 0-1.886-.827-1.886-1.838V1.852c0-1.01.848-1.838 1.886-1.838C3.71.014 4.56.842 4.56 1.852v7.336c0 1.01-.849 1.838-1.886 1.838z" id="cq"/><path d="M.787 9.188V1.852c0-1.01.848-1.838 1.886-1.838C3.71.014 4.56.842 4.56 1.852v7.336c0 1.01-.849 1.838-1.886 1.838-1.038 0-1.886-.827-1.886-1.838z" id="cs"/><path d="M.384 9.188V1.852c0-1.01.85-1.838 1.887-1.838s1.887.828 1.887 1.838v7.336c0 1.01-.85 1.838-1.887 1.838-1.038 0-1.887-.827-1.887-1.838z" id="cu"/><path d="M.384 9.188V1.852c0-1.01.85-1.838 1.887-1.838s1.887.828 1.887 1.838v7.336c0 1.01-.85 1.838-1.887 1.838-1.038 0-1.887-.827-1.887-1.838z" id="cw"/><path d="M3.262 1.973c0 .718-.603 1.3-1.346 1.3-.744 0-1.348-.582-1.348-1.3 0-.719.604-1.3 1.348-1.3.743 0 1.346.581 1.346 1.3z" id="cy"/><path d="M1.916 3.274c-.744 0-1.348-.583-1.348-1.301 0-.719.604-1.3 1.348-1.3.743 0 1.346.581 1.346 1.3 0 .718-.603 1.3-1.346 1.3z" id="cA"/><path d="M2.724 1.804c0 .718-.603 1.3-1.346 1.3-.744 0-1.346-.582-1.346-1.3 0-.719.602-1.3 1.346-1.3.743 0 1.346.581 1.346 1.3z" id="cC"/><path d="M2.724 1.804c0 .718-.603 1.3-1.346 1.3-.744 0-1.346-.582-1.346-1.3 0-.719.602-1.3 1.346-1.3.743 0 1.346.581 1.346 1.3z" id="cE"/><path d="M.552 20.78a.25.25 0 0 1-.249-.25V.891a.25.25 0 0 1 .25-.25h7.496a.25.25 0 0 1 .249.25v19.637a.25.25 0 0 1-.25.25H.553z" id="cG"/><path d="M.303.076h3.67" id="cI"/><path d="M.303.097h3.67" id="cK"/><path d="M.303.12h3.67" id="cM"/><path d="M.303.141h3.67" id="cO"/><path d="M.303.163h3.67" id="cQ"/><path d="M.303.185h3.67" id="cS"/><path d="M.303.207h3.67" id="cU"/><path d="M.303.23h3.67" id="cW"/><path d="M.303.251h3.67" id="cY"/><path d="M.303.23h3.67" id="da"/><path d="M6.128 18.246a2.203 2.203 0 1 0 4.407-.02 2.204 2.204 0 0 0-4.407.02zM2.432.271c1.608 4.886 3.213 9.766 4.816 14.632.325-.047.63-.12.936-.133 1.874-.073 3.384 1.252 3.597 3.142.198 1.758-1.062 3.423-2.844 3.755-1.68.315-3.353-.68-3.902-2.345A7942.85 7942.85 0 0 1 .22 4.695 3.502 3.502 0 0 1 2.25.335c.055-.022.11-.04.182-.064z" id="dc"/><path d="M.974.713a.44.44 0 0 1-.441.448.442.442 0 0 1-.447-.444.452.452 0 0 1 .436-.445.447.447 0 0 1 .452.44z" id="de"/><path d="M.343 20.556a.254.254 0 0 1-.254-.254V.37C.09.23.203.116.343.116H7.99c.14 0 .253.114.253.255V20.3c0 .14-.114.255-.253.255H.343z" id="dg"/><path d="M.09.433h3.742" id="di"/><path d="M.09.454h3.742" id="dk"/><path d="M.09.477h3.742" id="dm"/><path d="M.09.5h3.742" id="do"/><path d="M.09.522h3.742" id="dq"/><path d="M.09.544h3.742" id="ds"/><path d="M.09.566h3.742" id="du"/><path d="M.09.588h3.742" id="dw"/><path d="M.09.611h3.742" id="dy"/><path d="M.09.589h3.742" id="dA"/><path d="M6.636 18.587a2.241 2.241 0 0 0 2.258 2.241 2.24 2.24 0 0 0 2.237-2.26 2.24 2.24 0 0 0-2.247-2.233 2.243 2.243 0 0 0-2.248 2.252zM2.866.342l4.912 14.852c.332-.048.643-.122.956-.135 1.911-.074 3.452 1.271 3.668 3.189.202 1.785-1.082 3.474-2.9 3.812-1.714.319-3.42-.692-3.98-2.381A8034.12 8034.12 0 0 1 .61 4.832 3.55 3.55 0 0 1 2.681.407c.056-.022.113-.04.186-.065z" id="dC"/><path d="M3.911 8.35c1.244.003 2.253-1 2.254-2.243a2.244 2.244 0 0 0-2.247-2.25A2.25 2.25 0 0 0 1.661 6.1a2.25 2.25 0 0 0 2.25 2.25zm1.105-5.622l.74-2.233c.037.095.06.145.076.197.582 1.767 1.165 3.535 1.743 5.304a.436.436 0 0 1 .014.245c-.112.367-.228.734-.36 1.095a3.534 3.534 0 0 1-6.795-.651 3.518 3.518 0 0 1 3.811-4.097c.253.023.503.09.77.14z" id="dE"/><path d="M.434.401h16.48" id="dG"/><path d="M.08.109h16.48" id="dI"/><path d="M2.32 13.82c-1.038 0-1.886-.828-1.886-1.839V1.989C.434.978 1.282.15 2.319.15c1.038 0 1.887.828 1.887 1.84v9.991c0 1.01-.849 1.84-1.887 1.84z" id="dK"/><path d="M.434 11.981V1.989C.434.978 1.282.15 2.319.15c1.038 0 1.887.828 1.887 1.84v9.991c0 1.01-.849 1.84-1.887 1.84-1.037 0-1.885-.83-1.885-1.84z" id="dM"/><path d="M2.084 13.82C1.047 13.82.2 12.992.2 11.981V1.989C.199.978 1.047.15 2.084.15c1.038 0 1.887.828 1.887 1.84v9.991c0 1.01-.849 1.84-1.887 1.84z" id="dO"/><path d="M.199 11.981V1.989C.199.978 1.047.15 2.084.15c1.038 0 1.887.828 1.887 1.84v9.991c0 1.01-.849 1.84-1.887 1.84C1.047 13.82.2 12.99.2 11.98z" id="dQ"/><path d="M2.08 11.026C1.04 11.026.192 10.2.192 9.188V1.852C.193.842 1.041.014 2.08.014c1.037 0 1.886.828 1.886 1.838v7.336c0 1.01-.849 1.838-1.886 1.838z" id="dS"/><path d="M.193 9.188V1.852C.193.842 1.041.014 2.08.014c1.037 0 1.886.828 1.886 1.838v7.336c0 1.01-.849 1.838-1.886 1.838-1.038 0-1.886-.827-1.886-1.838z" id="dU"/><path d="M.384 9.188V1.852c0-1.01.85-1.838 1.887-1.838s1.887.828 1.887 1.838v7.336c0 1.01-.85 1.838-1.887 1.838-1.038 0-1.887-.827-1.887-1.838z" id="dW"/><path d="M.384 9.188V1.852c0-1.01.85-1.838 1.887-1.838s1.887.828 1.887 1.838v7.336c0 1.01-.85 1.838-1.887 1.838-1.038 0-1.887-.827-1.887-1.838z" id="dY"/><path d="M3.262 1.379c0 .718-.603 1.3-1.346 1.3-.744 0-1.348-.582-1.348-1.3 0-.719.604-1.3 1.348-1.3.743 0 1.346.581 1.346 1.3z" id="ea"/><path d="M1.916 2.68c-.744 0-1.348-.583-1.348-1.301 0-.719.604-1.3 1.348-1.3.743 0 1.346.581 1.346 1.3 0 .718-.603 1.3-1.346 1.3z" id="ec"/><path d="M2.724 1.804c0 .718-.603 1.3-1.346 1.3-.744 0-1.346-.582-1.346-1.3 0-.719.602-1.3 1.346-1.3.743 0 1.346.581 1.346 1.3z" id="ee"/><path d="M2.724 1.804c0 .718-.603 1.3-1.346 1.3-.744 0-1.346-.582-1.346-1.3 0-.719.602-1.3 1.346-1.3.743 0 1.346.581 1.346 1.3z" id="eg"/><path id="a" d="M27 14h4v10h-4z"/><mask id="ei" x="-1" y="-1" width="6" height="12"><path fill="#fff" d="M26 13h6v12h-6z"/><use xlink:href="#a"/></mask><path id="b" d="M4 14h4v10H4z"/><mask id="ej" x="-1" y="-1" width="6" height="12"><path fill="#fff" d="M3 13h6v12H3z"/><use xlink:href="#b"/></mask><path id="c" d="M13 0h9v7h-9z"/><mask id="ek" x="-1" y="-1" width="11" height="9"><path fill="#fff" d="M12-1h11v9H12z"/><use xlink:href="#c"/></mask><path id="d" d="M14 18h7v6h-7z"/><mask id="el" x="-1" y="-1" width="9" height="8"><path fill="#fff" d="M13 17h9v8h-9z"/><use xlink:href="#d"/></mask><path id="e" d="M13 12h1v2h-1z"/><mask id="em" x="-1" y="-1" width="3" height="4"><path fill="#fff" d="M12 11h3v4h-3z"/><use xlink:href="#e"/></mask><path id="f" d="M17 12h1v2h-1z"/><mask id="en" x="-1" y="-1" width="3" height="4"><path fill="#fff" d="M16 11h3v4h-3z"/><use xlink:href="#f"/></mask><path id="g" d="M21 12h1v2h-1z"/><mask id="eo" x="-1" y="-1" width="3" height="4"><path fill="#fff" d="M20 11h3v4h-3z"/><use xlink:href="#g"/></mask><path id="h" d="M9 8h17v16H9z"/><mask id="ep" x="-1" y="-1" width="19" height="18"><path fill="#fff" d="M8 7h19v18H8z"/><use xlink:href="#h"/></mask><path id="i" d="M27 14h4v10h-4z"/><mask id="eq" x="-1" y="-1" width="6" height="12"><path fill="#fff" d="M26 13h6v12h-6z"/><use xlink:href="#i"/></mask><path id="j" d="M4 14h4v10H4z"/><mask id="er" x="-1" y="-1" width="6" height="12"><path fill="#fff" d="M3 13h6v12H3z"/><use xlink:href="#j"/></mask><path id="k" d="M13 0h9v7h-9z"/><mask id="es" x="-1" y="-1" width="11" height="9"><path fill="#fff" d="M12-1h11v9H12z"/><use xlink:href="#k"/></mask><path id="l" d="M14 18h7v6h-7z"/><mask id="et" x="-1" y="-1" width="9" height="8"><path fill="#fff" d="M13 17h9v8h-9z"/><use xlink:href="#l"/></mask><path id="m" d="M13 12h1v2h-1z"/><mask id="eu" x="-1" y="-1" width="3" height="4"><path fill="#fff" d="M12 11h3v4h-3z"/><use xlink:href="#m"/></mask><path id="n" d="M17 12h1v2h-1z"/><mask id="ev" x="-1" y="-1" width="3" height="4"><path fill="#fff" d="M16 11h3v4h-3z"/><use xlink:href="#n"/></mask><path id="o" d="M21 12h1v2h-1z"/><mask id="ew" x="-1" y="-1" width="3" height="4"><path fill="#fff" d="M20 11h3v4h-3z"/><use xlink:href="#o"/></mask><path id="p" d="M9 8h17v16H9z"/><mask id="ex" x="-1" y="-1" width="19" height="18"><path fill="#fff" d="M8 7h19v18H8z"/><use xlink:href="#p"/></mask><path id="q" d="M27 14h4v10h-4z"/><mask id="ey" x="-1" y="-1" width="6" height="12"><path fill="#fff" d="M26 13h6v12h-6z"/><use xlink:href="#q"/></mask><path id="r" d="M4 14h4v10H4z"/><mask id="ez" x="-1" y="-1" width="6" height="12"><path fill="#fff" d="M3 13h6v12H3z"/><use xlink:href="#r"/></mask><path id="s" d="M13 0h9v7h-9z"/><mask id="eA" x="-1" y="-1" width="11" height="9"><path fill="#fff" d="M12-1h11v9H12z"/><use xlink:href="#s"/></mask><path id="t" d="M14 18h7v6h-7z"/><mask id="eB" x="-1" y="-1" width="9" height="8"><path fill="#fff" d="M13 17h9v8h-9z"/><use xlink:href="#t"/></mask><path id="u" d="M13 12h1v2h-1z"/><mask id="eC" x="-1" y="-1" width="3" height="4"><path fill="#fff" d="M12 11h3v4h-3z"/><use xlink:href="#u"/></mask><path id="v" d="M17 12h1v2h-1z"/><mask id="eD" x="-1" y="-1" width="3" height="4"><path fill="#fff" d="M16 11h3v4h-3z"/><use xlink:href="#v"/></mask><path id="w" d="M21 12h1v2h-1z"/><mask id="eE" x="-1" y="-1" width="3" height="4"><path fill="#fff" d="M20 11h3v4h-3z"/><use xlink:href="#w"/></mask><path id="x" d="M9 8h17v16H9z"/><mask id="eF" x="-1" y="-1" width="19" height="18"><path fill="#fff" d="M8 7h19v18H8z"/><use xlink:href="#x"/></mask><path id="y" d="M0 24h35v1H0z"/><mask id="eG" x="0" y="0" width="35" height="1" fill="#fff"><use xlink:href="#y"/></mask><path id="z" d="M5 16h2v1H5z"/><mask id="eH" x="0" y="0" width="2" height="1" fill="#fff"><use xlink:href="#z"/></mask><path id="A" d="M28 16h2v1h-2z"/><mask id="eI" x="0" y="0" width="2" height="1" fill="#fff"><use xlink:href="#A"/></mask><path id="B" d="M5 18h2v1H5z"/><mask id="eJ" x="0" y="0" width="2" height="1" fill="#fff"><use xlink:href="#B"/></mask><path id="C" d="M28 18h2v1h-2z"/><mask id="eK" x="0" y="0" width="2" height="1" fill="#fff"><use xlink:href="#C"/></mask><path id="D" d="M5 20h2v1H5z"/><mask id="eL" x="0" y="0" width="2" height="1" fill="#fff"><use xlink:href="#D"/></mask><path id="E" d="M28 20h2v1h-2z"/><mask id="eM" x="0" y="0" width="2" height="1" fill="#fff"><use xlink:href="#E"/></mask><path id="F" d="M15 3h5v1h-5z"/><mask id="eN" x="0" y="0" width="5" height="1" fill="#fff"><use xlink:href="#F"/></mask><path id="G" d="M17 1h1v5h-1z"/><mask id="eO" x="0" y="0" width="1" height="5" fill="#fff"><use xlink:href="#G"/></mask><path id="H" d="M17 17h1v7h-1z"/><mask id="eP" x="0" y="0" width="1" height="7" fill="#fff"><use xlink:href="#H"/></mask><path id="I" d="M27 14h4v10h-4z"/><mask id="eQ" x="-1" y="-1" width="6" height="12"><path fill="#fff" d="M26 13h6v12h-6z"/><use xlink:href="#I"/></mask><path id="J" d="M4 14h4v10H4z"/><mask id="eR" x="-1" y="-1" width="6" height="12"><path fill="#fff" d="M3 13h6v12H3z"/><use xlink:href="#J"/></mask><path id="K" d="M13 0h9v7h-9z"/><mask id="eS" x="-1" y="-1" width="11" height="9"><path fill="#fff" d="M12-1h11v9H12z"/><use xlink:href="#K"/></mask><path id="L" d="M14 18h7v6h-7z"/><mask id="eT" x="-1" y="-1" width="9" height="8"><path fill="#fff" d="M13 17h9v8h-9z"/><use xlink:href="#L"/></mask><path id="M" d="M13 12h1v2h-1z"/><mask id="eU" x="-1" y="-1" width="3" height="4"><path fill="#fff" d="M12 11h3v4h-3z"/><use xlink:href="#M"/></mask><path id="N" d="M17 12h1v2h-1z"/><mask id="eV" x="-1" y="-1" width="3" height="4"><path fill="#fff" d="M16 11h3v4h-3z"/><use xlink:href="#N"/></mask><path id="O" d="M21 12h1v2h-1z"/><mask id="eW" x="-1" y="-1" width="3" height="4"><path fill="#fff" d="M20 11h3v4h-3z"/><use xlink:href="#O"/></mask><path id="P" d="M9 8h17v16H9z"/><mask id="eX" x="-1" y="-1" width="19" height="18"><path fill="#fff" d="M8 7h19v18H8z"/><use xlink:href="#P"/></mask><path id="Q" d="M0 24h35v1H0z"/><mask id="eY" x="0" y="0" width="35" height="1" fill="#fff"><use xlink:href="#Q"/></mask><path id="R" d="M5 16h2v1H5z"/><mask id="eZ" x="0" y="0" width="2" height="1" fill="#fff"><use xlink:href="#R"/></mask><path id="S" d="M28 16h2v1h-2z"/><mask id="fa" x="0" y="0" width="2" height="1" fill="#fff"><use xlink:href="#S"/></mask><path id="T" d="M5 18h2v1H5z"/><mask id="fb" x="0" y="0" width="2" height="1" fill="#fff"><use xlink:href="#T"/></mask><path id="U" d="M28 18h2v1h-2z"/><mask id="fc" x="0" y="0" width="2" height="1" fill="#fff"><use xlink:href="#U"/></mask><path id="V" d="M5 20h2v1H5z"/><mask id="fd" x="0" y="0" width="2" height="1" fill="#fff"><use xlink:href="#V"/></mask><path id="W" d="M28 20h2v1h-2z"/><mask id="fe" x="0" y="0" width="2" height="1" fill="#fff"><use xlink:href="#W"/></mask><path id="X" d="M15 3h5v1h-5z"/><mask id="ff" x="0" y="0" width="5" height="1" fill="#fff"><use xlink:href="#X"/></mask><path id="Y" d="M17 1h1v5h-1z"/><mask id="fg" x="0" y="0" width="1" height="5" fill="#fff"><use xlink:href="#Y"/></mask><path id="Z" d="M17 17h1v7h-1z"/><mask id="fh" x="0" y="0" width="1" height="7" fill="#fff"><use xlink:href="#Z"/></mask></defs><g fill="none" fill-rule="evenodd"><g transform="translate(24 20)"><circle stroke="#02A6D8" cx="40" cy="40" r="40"/><g transform="translate(21.6 20.8)"><path d="M7.281 2.855H0s3.883 19.682 10.922 19.682c7.524 0 10.922-19.682 10.922-19.682h-7.767" stroke="#02A6D8" stroke-width="1.6"/><path d="M10.922 22.777v5.04s.243 10.56 11.164 10.56c10.922 0 11.408-10.56 11.408-10.56v-13.92" stroke="#02A6D8" stroke-width="1.6"/><ellipse stroke="#02A6D8" stroke-width="1.6" cx="33.494" cy="9.766" rx="2.912" ry="2.88"/><ellipse fill="#02A6D8" cx="6.826" cy="2.803" rx="2.275" ry="2.295"/><ellipse fill="#02A6D8" cx="13.652" cy="2.803" rx="2.275" ry="2.295"/></g></g><g transform="translate(153 20)"><circle stroke="#02A6D8" fill="#02A6D8" cx="40" cy="40" r="40"/><g transform="translate(21.6 20.8)"><path d="M7.281 2.855H0s3.883 19.682 10.922 19.682c7.524 0 10.922-19.682 10.922-19.682h-7.767" stroke="#FFF" stroke-width="1.6"/><path d="M10.922 22.777v5.04s.243 10.56 11.164 10.56c10.922 0 11.408-10.56 11.408-10.56v-13.92" stroke="#FFF" stroke-width="1.6"/><ellipse stroke="#FFF" stroke-width="1.6" cx="33.494" cy="9.766" rx="2.912" ry="2.88"/><ellipse fill="#FFF" cx="6.826" cy="2.803" rx="2.275" ry="2.295"/><ellipse fill="#FFF" cx="13.652" cy="2.803" rx="2.275" ry="2.295"/></g></g><g transform="translate(153 363)"><circle stroke="#02A6D8" fill="#02A6D8" cx="40" cy="40" r="40"/><path d="M30.479 31.989a1.619 1.619 0 0 1 1.63-1.608s3.134.65 7.198.677c4.063.029 8.066-.572 8.066-.572a1.62 1.62 0 0 1 1.608 1.63l-.17 24.548a1.32 1.32 0 0 1-1.33 1.313s-1.063.653-7.538.608c-6.475-.044-8.321-.718-8.321-.718a1.322 1.322 0 0 1-1.313-1.33l.013-1.783.157-22.765zm9.268-6.637c4.955.035 7.426 1.043 7.426 1.043v4.09s-4.596.595-7.536.575c-2.94-.02-7.33-.678-7.33-.678v-4.09s2.484-.974 7.44-.94zm-6.873 1.805l13.546.045s-4.86 1.724-13.546-.045zM48.94 37.942S40 43 30.437 38.053" stroke="#FFF" stroke-width="1.5" stroke-linecap="round" stroke-linejoin="round"/></g><path d="M61.038 959.15L45.72 943.83l15.318-15.66M45.675 1028.202l14.36-14.36-14.36-14.684" stroke-width="5" stroke="#C0C0C0"/><g transform="translate(24 248)"><circle stroke="#02A6D8" cx="40" cy="40" r="40"/><path d="M35.734 32.887h8.532v15.007c0 2.742-1.91 4.964-4.266 4.964-2.357 0-4.266-2.222-4.266-4.964V32.887z"/><path d="M35.734 32.887h8.532v15.007c0 2.742-1.91 4.964-4.266 4.964-2.357 0-4.266-2.222-4.266-4.964V32.887z" stroke="#02A6D8"/><path d="M35.734 42.95h1.655c2.753 0 4.25-3.003 6.877-3.003"/><path d="M35.734 42.95h1.655c2.753 0 4.25-3.003 6.877-3.003" stroke="#02A6D8"/><path d="M27.296 38.134h-3.26c-.717 0-.106-.414-.106-.414l16.133-13.777 6.41 5.418.254-3.228h5.177l.022 7.835 4.504 3.809s.248.357-.62.357h-2.98v17.915H27.296V38.134z" stroke="#02A6D8" stroke-width="1.6"/></g><g transform="translate(153 248)"><circle stroke="#02A6D8" fill="#02A6D8" cx="40" cy="40" r="40"/><path d="M35.734 32.887h8.532v15.007c0 2.742-1.91 4.964-4.266 4.964-2.357 0-4.266-2.222-4.266-4.964V32.887z"/><path d="M35.734 32.887h8.532v15.007c0 2.742-1.91 4.964-4.266 4.964-2.357 0-4.266-2.222-4.266-4.964V32.887z" stroke="#FFF"/><path d="M35.734 42.95h1.655c2.753 0 4.25-3.003 6.877-3.003" fill="#FFF"/><path d="M35.734 42.95h1.655c2.753 0 4.25-3.003 6.877-3.003" stroke="#FFF"/><path d="M27.296 38.134h-3.26c-.717 0-.106-.414-.106-.414l16.133-13.777 6.41 5.418.254-3.228h5.177l.022 7.835 4.504 3.809s.248.357-.62.357h-2.98v17.915H27.296V38.134z" stroke="#FFF" stroke-width="1.6"/></g><g transform="translate(31 1062)"><circle stroke="#02A6D8" stroke-width=".7" cx="30" cy="30" r="30"/><g transform="translate(16.2 15.6)"><path d="M5.46 2.141H0s2.912 14.762 8.191 14.762c5.643 0 8.192-14.762 8.192-14.762h-5.825" stroke="#02A6D8" stroke-width="1.12"/><path d="M8.191 17.083v3.78s.182 7.92 8.374 7.92c8.191 0 8.555-7.92 8.555-7.92v-10.44" stroke="#02A6D8" stroke-width="1.12"/><ellipse stroke="#02A6D8" stroke-width="1.12" cx="25.12" cy="7.324" rx="2.184" ry="2.16"/><ellipse fill="#02A6D8" cx="5.12" cy="2.102" rx="1.707" ry="1.721"/><ellipse fill="#02A6D8" cx="10.239" cy="2.102" rx="1.707" ry="1.721"/></g></g><g transform="translate(120 1062)"><circle stroke="#02A6D8" stroke-width=".7" fill="#02A6D8" cx="30" cy="30" r="30"/><g transform="translate(16.2 15.6)"><path d="M5.46 2.141H0s2.912 14.762 8.191 14.762c5.643 0 8.192-14.762 8.192-14.762h-5.825" stroke="#FFF" stroke-width="1.12"/><path d="M8.191 17.083v3.78s.182 7.92 8.374 7.92c8.191 0 8.555-7.92 8.555-7.92v-10.44" stroke="#FFF" stroke-width="1.12"/><ellipse stroke="#FFF" stroke-width="1.12" cx="25.12" cy="7.324" rx="2.184" ry="2.16"/><ellipse fill="#FFF" cx="5.12" cy="2.102" rx="1.707" ry="1.721"/><ellipse fill="#FFF" cx="10.239" cy="2.102" rx="1.707" ry="1.721"/></g></g><g transform="translate(122 1141)"><circle stroke="#02A6D8" stroke-width=".7" fill="#02A6D8" cx="30" cy="30" r="30"/><g stroke-width="1.12" stroke="#FFF"><path d="M31.51 28.81v6.373M28.637 31.888h6.314"/><path d="M23.185 31.026c-.386 0-.057-.223-.057-.223l8.659-7.394 8.786 7.424s.132.193-.333.193h-1.6v9.618H24.934v-9.618h-1.75zm-.253.087l2.118-.033-.116 9.564h-5.661V19.367l10.554.03v5.692l-6.895 6.024z" stroke-linejoin="round"/><path d="M21.32 21.691h6.19"/></g></g><path d="M152 1362c16.569 0 30-13.431 30-30 0-16.569-13.431-30-30-30-16.569 0-30 13.431-30 30 0 16.569 13.431 30 30 30z" stroke="#02A6D8" stroke-width=".7" fill="#02A6D8"/><path d="M144.86 1325.992c.004-.67.551-1.21 1.222-1.206 0 0 2.35.487 5.398.508 3.048.021 6.05-.43 6.05-.43.67.006 1.21.553 1.205 1.224l-.127 18.41a.99.99 0 0 1-.997.984s-.797.49-5.654.457c-4.856-.033-6.24-.539-6.24-.539a.991.991 0 0 1-.985-.997l.01-1.338.117-17.073zm6.95-4.978c3.717.026 5.57.782 5.57.782v3.068s-3.447.446-5.653.43c-2.204-.015-5.497-.507-5.497-.507v-3.067s1.863-.732 5.58-.706zm5.005 1.388s-3.645 1.293-10.16-.035l10.16.035zm1.89 8.054s-6.705 4.544-13.877.084" stroke="#FFF" stroke-width="1.05" stroke-linejoin="round"/><g transform="translate(31 1221)"><circle stroke="#02A6D8" stroke-width=".7" cx="30" cy="30" r="30"/><path d="M26.8 24.665h6.4V35.92c0 2.057-1.433 3.724-3.2 3.724-1.767 0-3.2-1.667-3.2-3.724V24.665z"/><path d="M26.8 24.665h6.4V35.92c0 2.057-1.433 3.724-3.2 3.724-1.767 0-3.2-1.667-3.2-3.724V24.665z" stroke="#02A6D8" stroke-width=".7"/><path d="M26.8 32.212h1.242c2.065 0 3.188-2.252 5.157-2.252"/><path d="M26.8 32.212h1.242c2.065 0 3.188-2.252 5.157-2.252" stroke="#02A6D8" stroke-width=".7"/><path d="M20.472 28.6h-2.445c-.537 0-.08-.31-.08-.31l12.1-10.333 4.808 4.064.19-2.421h3.883l.016 5.876 3.379 2.856s.185.268-.465.268h-2.235v13.437h-19.15V28.6z" stroke="#02A6D8" stroke-width="1.12"/></g><g transform="translate(122 1221)"><circle stroke="#02A6D8" stroke-width=".7" fill="#02A6D8" cx="30" cy="30" r="30"/><path d="M26.8 24.665h6.4V35.92c0 2.057-1.433 3.724-3.2 3.724-1.767 0-3.2-1.667-3.2-3.724V24.665z"/><path d="M26.8 24.665h6.4V35.92c0 2.057-1.433 3.724-3.2 3.724-1.767 0-3.2-1.667-3.2-3.724V24.665z" stroke="#FFF" stroke-width=".7"/><path d="M26.8 32.212h1.242c2.065 0 3.188-2.252 5.157-2.252" fill="#FFF"/><path d="M26.8 32.212h1.242c2.065 0 3.188-2.252 5.157-2.252" stroke="#FFF" stroke-width=".7"/><path d="M20.472 28.6h-2.445c-.537 0-.08-.31-.08-.31l12.1-10.333 4.808 4.064.19-2.421h3.883l.016 5.876 3.379 2.856s.185.268-.465.268h-2.235v13.437h-19.15V28.6z" stroke="#FFF" stroke-width="1.12"/></g><g transform="translate(24 592)"><circle stroke="#02A6D8" cx="40" cy="40" r="40"/><g transform="translate(29.395 36.7)"><mask id="ab" fill="#fff"><use xlink:href="#aa"/></mask><path d="M.579.535h21.973" fill="#FFF" mask="url(#ab)"/></g><path d="M29.974 37.228h21.973" stroke="#02A6D8"/><path d="M29.974 38.168h21.973m-23.11 1.622H50.81m-21.973-.46H50.81m-21.973 1.56H50.81" stroke="#E0F6F9" stroke-width="1.556"/><g transform="translate(28.295 42.2)"><mask id="ad" fill="#fff"><use xlink:href="#ac"/></mask><path d="M.899.145H22.87" fill="#FFF" mask="url(#ad)"/></g><path d="M29.194 41.98h21.972" stroke="#02A6D8"/><g transform="translate(29.395 30.099)"><mask id="af" fill="#fff"><use xlink:href="#ae"/></mask><path fill="#FFF" mask="url(#af)" d="M.579.992h5.03V19.22H.578z"/></g><g transform="translate(29.395 30.099)"><mask id="ah" fill="#fff"><use xlink:href="#ag"/></mask><path fill="#9BD0F2" mask="url(#ah)" d="M.579.992h5.03V19.22H.578z"/></g><path d="M29.974 46.866V33.543c0-1.348 1.13-2.452 2.513-2.452 1.384 0 2.516 1.104 2.516 2.452v13.323c0 1.347-1.132 2.452-2.516 2.452-1.382 0-2.513-1.105-2.513-2.452z" stroke="#02A6D8"/><g transform="translate(45.796 30.099)"><mask id="aj" fill="#fff"><use xlink:href="#ai"/></mask><path fill="#FFF" mask="url(#aj)" d="M.057.992h5.03V19.22H.057z"/></g><g transform="translate(45.796 30.099)"><mask id="al" fill="#fff"><use xlink:href="#ak"/></mask><path fill="#9BD0F2" mask="url(#al)" d="M.057.992h5.03V19.22H.057z"/></g><path d="M45.854 46.866V33.543c0-1.348 1.13-2.452 2.513-2.452 1.384 0 2.516 1.104 2.516 2.452v13.323c0 1.347-1.132 2.452-2.516 2.452-1.382 0-2.513-1.105-2.513-2.452z" stroke="#02A6D8"/><g transform="translate(24.894 32.3)"><mask id="an" fill="#fff"><use xlink:href="#am"/></mask><path fill="#FFF" mask="url(#an)" d="M.05.019h5.03v14.683H.05z"/></g><g transform="translate(24.894 32.3)"><mask id="ap" fill="#fff"><use xlink:href="#ao"/></mask><path fill="#9BD0F2" mask="url(#ap)" d="M.05.019h5.03v14.683H.05z"/></g><path d="M24.944 44.55V34.77c0-1.348 1.13-2.451 2.515-2.451 1.383 0 2.515 1.103 2.515 2.451v9.781c0 1.348-1.132 2.451-2.515 2.451-1.384 0-2.515-1.103-2.515-2.45z" stroke="#02A6D8"/><g transform="translate(50.297 32.3)"><mask id="ar" fill="#fff"><use xlink:href="#aq"/></mask><path fill="#EEECEC" mask="url(#ar)" d="M.513.019h5.03v14.683H.512z"/></g><path d="M50.81 44.55V34.77c0-1.348 1.132-2.451 2.515-2.451 1.382 0 2.515 1.103 2.515 2.451v9.781c0 1.348-1.133 2.451-2.515 2.451-1.383 0-2.515-1.103-2.515-2.45z" stroke="#0191F3" stroke-width="1.556"/><g transform="translate(50.297 32.3)"><mask id="at" fill="#fff"><use xlink:href="#as"/></mask><path fill="#9BD0F2" mask="url(#at)" d="M.513.019h5.03v14.683H.512z"/></g><path d="M50.81 44.55V34.77c0-1.348 1.132-2.451 2.515-2.451 1.382 0 2.515 1.103 2.515 2.451v9.781c0 1.348-1.133 2.451-2.515 2.451-1.383 0-2.515-1.103-2.515-2.45z" stroke="#02A6D8"/><g transform="translate(20.594 36.7)"><mask id="av" fill="#fff"><use xlink:href="#au"/></mask><path fill="#FFF" mask="url(#av)" d="M.758.897H4.35v3.468H.758z"/></g><g transform="translate(20.594 36.7)"><mask id="ax" fill="#fff"><use xlink:href="#aw"/></mask><path fill="#9BD0F2" mask="url(#ax)" d="M.758.897H4.35v3.468H.758z"/></g><path d="M23.149 41.065c-.993 0-1.797-.777-1.797-1.735 0-.958.804-1.734 1.797-1.734.99 0 1.795.776 1.795 1.734s-.804 1.735-1.795 1.735z" stroke="#02A6D8"/><g transform="translate(55.798 37.8)"><mask id="az" fill="#fff"><use xlink:href="#ay"/></mask><path fill="#FFF" mask="url(#az)" d="M.043.671h3.59V4.14H.044z"/></g><g transform="translate(55.798 37.8)"><mask id="aB" fill="#fff"><use xlink:href="#aA"/></mask><path fill="#9BD0F2" mask="url(#aB)" d="M.043.671h3.59V4.14H.044z"/></g><path d="M59.43 40.205c0 .958-.804 1.733-1.795 1.733-.991 0-1.795-.775-1.795-1.733 0-.959.804-1.734 1.795-1.734.991 0 1.795.775 1.795 1.734z" stroke="#02A6D8"/></g><g transform="translate(153 478)"><circle stroke="#02A6D8" fill="#02A6D8" cx="40" cy="40" r="40"/><path d="M45.74 38.515l4.752-11.285s3.136.904 1.204 5.532l-3.313 8.244-2.643-2.491z" fill="#9ED0ED"/><path d="M45.74 38.515l4.752-11.285s3.136.904 1.204 5.532l-3.313 8.244-2.643-2.491z" stroke="#FFF"/><g transform="translate(23.762 25.725)"><mask id="aD" fill="#fff"><use xlink:href="#aC"/></mask><path fill="#E1F6F9" mask="url(#aD)" d="M.404.856h10.66v26.85H.403z"/></g><path d="M34.494 53.431h-9.995a.333.333 0 0 1-.332-.334V26.914c0-.183.149-.333.332-.333h9.995c.183 0 .332.15.332.333v26.183c0 .184-.15.334-.332.334z" fill="#E1F6F9"/><g transform="translate(23.762 29.237)"><mask id="aF" fill="#fff"><use xlink:href="#aE"/></mask><path d="M.404.102h4.892" fill="#FFF" mask="url(#aF)"/></g><path d="M24.167 29.307h4.892" stroke="#02A6D8"/><g transform="translate(23.762 31.578)"><mask id="aH" fill="#fff"><use xlink:href="#aG"/></mask><path d="M.404.13h4.892" fill="#FFF" mask="url(#aH)"/></g><path d="M24.167 31.683h4.892" stroke="#02A6D8"/><g transform="translate(23.762 33.919)"><mask id="aJ" fill="#fff"><use xlink:href="#aI"/></mask><path d="M.404.16h4.892" fill="#FFF" mask="url(#aJ)"/></g><path d="M24.167 34.06h4.892" stroke="#02A6D8"/><g transform="translate(23.762 36.26)"><mask id="aL" fill="#fff"><use xlink:href="#aK"/></mask><path d="M.404.188h4.892" fill="#FFF" mask="url(#aL)"/></g><path d="M24.167 36.436h4.892" stroke="#02A6D8"/><g transform="translate(23.762 38.601)"><mask id="aN" fill="#fff"><use xlink:href="#aM"/></mask><path d="M.404.218h4.892" fill="#FFF" mask="url(#aN)"/></g><path d="M24.167 38.812h4.892" stroke="#02A6D8"/><g transform="translate(23.762 40.942)"><mask id="aP" fill="#fff"><use xlink:href="#aO"/></mask><path d="M.404.247h4.892" fill="#FFF" mask="url(#aP)"/></g><path d="M24.167 41.188h4.892" stroke="#02A6D8"/><g transform="translate(23.762 43.283)"><mask id="aR" fill="#fff"><use xlink:href="#aQ"/></mask><path d="M.404.276h4.892" fill="#FFF" mask="url(#aR)"/></g><path d="M24.167 42.772h4.892" stroke="#02A6D8"/><g transform="translate(23.762 45.625)"><mask id="aT" fill="#fff"><use xlink:href="#aS"/></mask><path d="M.404.306h4.892" fill="#FFF" mask="url(#aT)"/></g><path d="M24.167 45.149h4.892" stroke="#02A6D8"/><g transform="translate(23.762 47.966)"><mask id="aV" fill="#fff"><use xlink:href="#aU"/></mask><path d="M.404.335h4.892" fill="#FFF" mask="url(#aV)"/></g><path d="M24.167 47.525h4.892" stroke="#02A6D8"/><g transform="translate(23.762 50.307)"><mask id="aX" fill="#fff"><use xlink:href="#aW"/></mask><path d="M.404.307h4.892" fill="#FFF" mask="url(#aX)"/></g><path d="M24.167 49.901h4.892" stroke="#02A6D8"/><g transform="translate(40.862 25.347)"><mask id="aZ" fill="#fff"><use xlink:href="#aY"/></mask><path d="M8.17 24.328a2.937 2.937 0 0 0 2.952 2.944 2.935 2.935 0 0 0 2.925-2.97 2.939 2.939 0 0 0-5.877.026zM3.243.361l6.42 19.51c.434-.064.84-.16 1.25-.177 2.498-.098 4.512 1.67 4.795 4.188.264 2.345-1.416 4.564-3.792 5.008-2.24.419-4.47-.909-5.203-3.128-2.147-6.499-4.286-13-6.42-19.503C-.482 3.891.71 1.35 3.002.446c.072-.029.146-.052.242-.085z" stroke="#FFF" stroke-width="3" mask="url(#aZ)"/></g><path d="M40.812 52.614a2.94 2.94 0 0 0 2.946-2.946 2.94 2.94 0 0 0-2.937-2.956 2.95 2.95 0 0 0-2.95 2.946 2.948 2.948 0 0 0 2.94 2.956zm1.444-7.385l.968-2.934c.048.126.077.191.1.26.76 2.322 1.522 4.644 2.278 6.968.032.099.047.224.018.321-.146.483-.298.965-.471 1.439-.722 1.969-2.715 3.216-4.78 2.999a4.631 4.631 0 0 1-4.102-3.855c-.495-3.024 1.943-5.663 4.982-5.382.33.03.657.118 1.007.184z" fill="#FFF"/><path d="M50.193 46.18l-6.711-19.192s-3.046.754-1.413 5.469l5.915 17.515s-.492-1.448 2.21-3.791z" fill="#9ED0ED"/><path d="M46.82 39.552a.586.586 0 0 1-.588.598.59.59 0 0 1-.597-.592.602.602 0 0 1 .583-.594.595.595 0 0 1 .602.588" fill="#2F51CA"/><g transform="translate(45.521 38.601)"><mask id="bb" fill="#fff"><use xlink:href="#ba"/></mask><path fill="#FFF" mask="url(#bb)" d="M.112.354h1.19V1.55H.112z"/></g><path d="M34.494 53.431h-9.995a.333.333 0 0 1-.332-.334V26.914c0-.183.149-.333.332-.333h9.995c.183 0 .332.15.332.333v26.183c0 .184-.15.334-.332.334z" stroke="#FFF"/></g><circle cx="40" cy="40" r="40" stroke="#02A6D8" transform="translate(24 478)"/><path d="M40.634 493.842h47.525v47.525H40.634z"/><path d="M69.886 516.803l4.845-11.453s3.2.916 1.229 5.615l-3.378 8.365-2.696-2.527z" fill="#A1D1ED"/><path d="M69.886 516.803l4.845-11.453s3.2.916 1.229 5.615l-3.378 8.365-2.696-2.527z" stroke="#0285C2" stroke-width="1.5"/><g transform="translate(47.762 504.535)"><mask id="bd" fill="#fff"><use xlink:href="#bc"/></mask><path fill="#E3F7F9" mask="url(#bd)" d="M.119.154H10.99v27.254H.12z"/></g><path d="M48.22 531.942a.34.34 0 0 1-.339-.338v-26.575a.34.34 0 0 1 .339-.34h10.195a.34.34 0 0 1 .339.34v26.575a.34.34 0 0 1-.339.338H48.22z" stroke="#4A4A4A" stroke-width="1.5"/><path d="M58.415 531.942H48.22a.34.34 0 0 1-.339-.338v-26.575a.34.34 0 0 1 .339-.34h10.195a.34.34 0 0 1 .339.34v26.575a.34.34 0 0 1-.339.338z" fill="#E3F7F9"/><path d="M58.415 531.942H48.22a.34.34 0 0 1-.339-.338v-26.575a.34.34 0 0 1 .339-.34h10.195a.34.34 0 0 1 .339.34v26.575a.34.34 0 0 1-.339.338z" stroke="#0285C2" stroke-width="1.5"/><g transform="translate(47.762 506.91)"><mask id="bf" fill="#fff"><use xlink:href="#be"/></mask><path d="M.119.577h4.99" fill="#FFF" mask="url(#bf)"/></g><path d="M47.881 507.488h4.99" stroke="#0285C2" stroke-width="1.5"/><g transform="translate(47.762 509.287)"><mask id="bh" fill="#fff"><use xlink:href="#bg"/></mask><path d="M.119.606h4.99" fill="#FFF" mask="url(#bh)"/></g><path d="M47.881 509.893h4.99" stroke="#0285C2" stroke-width="1.5"/><g transform="translate(47.762 511.663)"><mask id="bj" fill="#fff"><use xlink:href="#bi"/></mask><path d="M.119.636h4.99" fill="#FFF" mask="url(#bj)"/></g><path d="M47.881 512.299h4.99" stroke="#0285C2" stroke-width="1.5"/><g transform="translate(47.762 514.04)"><mask id="bl" fill="#fff"><use xlink:href="#bk"/></mask><path d="M.119.667h4.99" fill="#FFF" mask="url(#bl)"/></g><path d="M47.881 514.706h4.99" stroke="#0285C2" stroke-width="1.5"/><g transform="translate(47.762 516.416)"><mask id="bn" fill="#fff"><use xlink:href="#bm"/></mask><path d="M.119.696h4.99" fill="#FFF" mask="url(#bn)"/></g><path d="M47.881 517.112h4.99" stroke="#0285C2" stroke-width="1.5"/><g transform="translate(47.762 518.792)"><mask id="bp" fill="#fff"><use xlink:href="#bo"/></mask><path d="M.119.725h4.99" fill="#FFF" mask="url(#bp)"/></g><path d="M47.881 519.517h4.99" stroke="#0285C2" stroke-width="1.5"/><g transform="translate(47.762 521.168)"><mask id="br" fill="#fff"><use xlink:href="#bq"/></mask><path d="M.119.754h4.99" fill="#FFF" mask="url(#br)"/></g><path d="M47.881 521.923h4.99" stroke="#0285C2" stroke-width="1.5"/><g transform="translate(47.762 523.545)"><mask id="bt" fill="#fff"><use xlink:href="#bs"/></mask><path d="M.119.784h4.99" fill="#FFF" mask="url(#bt)"/></g><path d="M47.881 524.329h4.99" stroke="#0285C2" stroke-width="1.5"/><g transform="translate(47.762 525.92)"><mask id="bv" fill="#fff"><use xlink:href="#bu"/></mask><path d="M.119.815h4.99" fill="#FFF" mask="url(#bv)"/></g><path d="M47.881 526.736h4.99" stroke="#0285C2" stroke-width="1.5"/><g transform="translate(47.762 528.297)"><mask id="bx" fill="#fff"><use xlink:href="#bw"/></mask><path d="M.119.785h4.99" fill="#FFF" mask="url(#bx)"/></g><path d="M47.881 529.082h4.99" stroke="#0285C2" stroke-width="1.5"/><g transform="translate(64.396 503.347)"><mask id="bz" fill="#fff"><use xlink:href="#by"/></mask><path d="M8.848 24.783a2.988 2.988 0 0 0 3.01 2.988 2.986 2.986 0 0 0 2.984-3.014 2.987 2.987 0 0 0-2.996-2.976 2.99 2.99 0 0 0-2.998 3.002zM3.822.456c2.186 6.613 4.37 13.218 6.55 19.803.441-.065.856-.163 1.273-.18 2.548-.1 4.603 1.694 4.891 4.251.27 2.38-1.443 4.633-3.867 5.083-2.285.425-4.56-.922-5.307-3.175C5.172 19.642 2.99 13.043.814 6.443a4.732 4.732 0 0 1 2.761-5.9c.074-.03.15-.053.247-.087z" stroke="#0285C2" stroke-width="3" mask="url(#bz)"/></g><path d="M64.858 531.113a2.992 2.992 0 0 0 3.005-2.99 2.992 2.992 0 0 0-2.995-3 3 3 0 0 0-3.01 2.99 3 3 0 0 0 3 3zm1.473-7.496l.988-2.977c.049.127.078.193.1.263.777 2.356 1.554 4.714 2.325 7.072a.58.58 0 0 1 .019.327c-.15.49-.304.979-.481 1.46a4.712 4.712 0 0 1-4.876 3.044 4.714 4.714 0 0 1-4.184-3.913 4.691 4.691 0 0 1 5.082-5.463c.337.031.67.12 1.027.187z" fill="#2F51CB"/><g transform="translate(59.644 519.98)"><mask id="bB" fill="#fff"><use xlink:href="#bA"/></mask><path fill="#0285C2" mask="url(#bB)" d="M.074.66h10.075v12.386H.074z"/></g><path d="M74.427 524.583l-6.844-19.48s-3.107.765-1.442 5.55l6.034 17.78s-.502-1.47 2.252-3.85z" fill="#A1D1ED"/><path d="M74.427 524.583l-6.844-19.48s-3.107.765-1.442 5.55l6.034 17.78s-.502-1.47 2.252-3.85z" stroke="#0285C2" stroke-width="1.5"/><g transform="translate(153 593)"><circle stroke="#02A6D8" fill="#02A6D8" cx="40" cy="40" r="40"/><g transform="translate(29.395 36.7)"><mask id="bD" fill="#fff"><use xlink:href="#bC"/></mask><path d="M.579.535h21.973" fill="#FFF" mask="url(#bD)"/></g><path d="M29.974 37.228h21.973" stroke="#02A6D8"/><path d="M29.974 38.168h21.973m-23.11 1.622H50.81m-21.973-.46H50.81m-21.973 1.56H50.81" stroke="#E0F6F9" stroke-width="1.556"/><g transform="translate(29.087 42.2)"><mask id="bF" fill="#fff"><use xlink:href="#bE"/></mask><path d="M.107.145h21.972" fill="#FFF" mask="url(#bF)"/></g><path d="M29.194 41.98h21.972" stroke="#02A6D8"/><g transform="translate(29.395 30.891)"><mask id="bH" fill="#fff"><use xlink:href="#bG"/></mask><path fill="#FFF" mask="url(#bH)" d="M.579.2h5.03v18.227H.578z"/></g><g transform="translate(29.395 30.891)"><mask id="bJ" fill="#fff"><use xlink:href="#bI"/></mask><path fill="#FFF" mask="url(#bJ)" d="M.579.2h5.03v18.227H.578z"/></g><path d="M29.974 46.866V33.543c0-1.348 1.13-2.452 2.513-2.452 1.384 0 2.516 1.104 2.516 2.452v13.323c0 1.347-1.132 2.452-2.516 2.452-1.382 0-2.513-1.105-2.513-2.452z" stroke="#02A6D8"/><g transform="translate(45.589 30.891)"><mask id="bL" fill="#fff"><use xlink:href="#bK"/></mask><path fill="#FFF" mask="url(#bL)" d="M.265.2h5.03v18.227H.265z"/></g><g transform="translate(45.589 30.891)"><mask id="bN" fill="#fff"><use xlink:href="#bM"/></mask><path fill="#FFF" mask="url(#bN)" d="M.265.2h5.03v18.227H.265z"/></g><path d="M45.854 46.866V33.543c0-1.348 1.13-2.452 2.513-2.452 1.384 0 2.516 1.104 2.516 2.452v13.323c0 1.347-1.132 2.452-2.516 2.452-1.382 0-2.513-1.105-2.513-2.452z" stroke="#02A6D8"/><g transform="translate(24.686 32.3)"><mask id="bP" fill="#fff"><use xlink:href="#bO"/></mask><path fill="#FFF" mask="url(#bP)" d="M.257.019h5.03v14.683H.257z"/></g><g transform="translate(24.686 32.3)"><mask id="bR" fill="#fff"><use xlink:href="#bQ"/></mask><path fill="#FFF" mask="url(#bR)" d="M.257.019h5.03v14.683H.257z"/></g><path d="M24.944 44.55V34.77c0-1.348 1.13-2.451 2.515-2.451 1.383 0 2.515 1.103 2.515 2.451v9.781c0 1.348-1.132 2.451-2.515 2.451-1.384 0-2.515-1.103-2.515-2.45z" stroke="#02A6D8"/><g transform="translate(50.297 32.3)"><mask id="bT" fill="#fff"><use xlink:href="#bS"/></mask><path fill="#EEECEC" mask="url(#bT)" d="M.513.019h5.03v14.683H.512z"/></g><path d="M50.81 44.55V34.77c0-1.348 1.132-2.451 2.515-2.451 1.382 0 2.515 1.103 2.515 2.451v9.781c0 1.348-1.133 2.451-2.515 2.451-1.383 0-2.515-1.103-2.515-2.45z" stroke="#0191F3" stroke-width="1.556"/><g transform="translate(50.297 32.3)"><mask id="bV" fill="#fff"><use xlink:href="#bU"/></mask><path fill="#FFF" mask="url(#bV)" d="M.513.019h5.03v14.683H.512z"/></g><path d="M50.81 44.55V34.77c0-1.348 1.132-2.451 2.515-2.451 1.382 0 2.515 1.103 2.515 2.451v9.781c0 1.348-1.133 2.451-2.515 2.451-1.383 0-2.515-1.103-2.515-2.45z" stroke="#02A6D8"/><g transform="translate(20.594 37.492)"><mask id="bX" fill="#fff"><use xlink:href="#bW"/></mask><path fill="#FFF" mask="url(#bX)" d="M.758.105H4.35v3.468H.758z"/></g><g transform="translate(20.594 37.492)"><mask id="bZ" fill="#fff"><use xlink:href="#bY"/></mask><path fill="#FFF" mask="url(#bZ)" d="M.758.105H4.35v3.468H.758z"/></g><g transform="translate(55.798 37.8)"><mask id="cb" fill="#fff"><use xlink:href="#ca"/></mask><path fill="#FFF" mask="url(#cb)" d="M.043.671h3.59V4.14H.044z"/></g><g transform="translate(55.798 37.8)"><mask id="cd" fill="#fff"><use xlink:href="#cc"/></mask><path fill="#FFF" mask="url(#cd)" d="M.043.671h3.59V4.14H.044z"/></g></g><g transform="translate(30 1473)"><circle stroke="#02A6D8" stroke-width=".703" cx="30" cy="30" r="30"/><g transform="translate(22.046 27.525)"><mask id="cf" fill="#fff"><use xlink:href="#ce"/></mask><path d="M.434.401h16.48" fill="#FFF" mask="url(#cf)"/></g><path d="M22.48 27.92h16.48" stroke="#02A6D8" stroke-width=".703"/><path d="M22.48 28.626h16.48m-17.332 1.216h16.48m-16.48-.344h16.48m-16.48 1.17h16.48" stroke="#E0F6F9" stroke-width="1.094"/><g transform="translate(21.221 31.65)"><mask id="ch" fill="#fff"><use xlink:href="#cg"/></mask><path d="M.674.109h16.48" fill="#FFF" mask="url(#ch)"/></g><path d="M21.895 31.485h16.48" stroke="#02A6D8" stroke-width=".703"/><g transform="translate(22.046 22.574)"><mask id="cj" fill="#fff"><use xlink:href="#ci"/></mask><path fill="#FFF" mask="url(#cj)" d="M.434.744h3.772v13.67H.434z"/></g><g transform="translate(22.046 22.574)"><mask id="cl" fill="#fff"><use xlink:href="#ck"/></mask><path fill="#9BD0F2" mask="url(#cl)" d="M.434.744h3.772v13.67H.434z"/></g><path d="M22.48 35.15v-9.992c0-1.012.848-1.84 1.886-1.84 1.037 0 1.886.828 1.886 1.84v9.991c0 1.011-.849 1.84-1.886 1.84-1.038 0-1.886-.829-1.886-1.84z" stroke="#02A6D8" stroke-width=".703"/><g transform="translate(33.597 22.574)"><mask id="cn" fill="#fff"><use xlink:href="#cm"/></mask><path fill="#FFF" mask="url(#cn)" d="M.793.744h3.772v13.67H.793z"/></g><g transform="translate(33.597 22.574)"><mask id="cp" fill="#fff"><use xlink:href="#co"/></mask><path fill="#9BD0F2" mask="url(#cp)" d="M.793.744h3.772v13.67H.793z"/></g><path d="M34.39 35.15v-9.992c0-1.012.848-1.84 1.886-1.84 1.038 0 1.887.828 1.887 1.84v9.991c0 1.011-.85 1.84-1.887 1.84-1.038 0-1.886-.829-1.886-1.84z" stroke="#02A6D8" stroke-width=".703"/><g transform="translate(17.92 24.224)"><mask id="cr" fill="#fff"><use xlink:href="#cq"/></mask><path fill="#FFF" mask="url(#cr)" d="M.787.014H4.56v11.012H.787z"/></g><g transform="translate(17.92 24.224)"><mask id="ct" fill="#fff"><use xlink:href="#cs"/></mask><path fill="#9BD0F2" mask="url(#ct)" d="M.787.014H4.56v11.012H.787z"/></g><path d="M18.708 33.413v-7.336c0-1.011.848-1.839 1.886-1.839 1.037 0 1.886.828 1.886 1.839v7.336c0 1.01-.849 1.838-1.886 1.838-1.038 0-1.886-.828-1.886-1.838z" stroke="#02A6D8" stroke-width=".703"/><g transform="translate(37.723 24.224)"><mask id="cv" fill="#fff"><use xlink:href="#cu"/></mask><path fill="#EEECEC" mask="url(#cv)" d="M.384.014h3.773v11.012H.384z"/></g><path d="M38.107 33.413v-7.336c0-1.011.85-1.839 1.886-1.839 1.038 0 1.887.828 1.887 1.839v7.336c0 1.01-.85 1.838-1.887 1.838s-1.886-.828-1.886-1.838z" stroke="#0191F3" stroke-width="1.094"/><g transform="translate(37.723 24.224)"><mask id="cx" fill="#fff"><use xlink:href="#cw"/></mask><path fill="#9BD0F2" mask="url(#cx)" d="M.384.014h3.773v11.012H.384z"/></g><path d="M38.107 33.413v-7.336c0-1.011.85-1.839 1.886-1.839 1.038 0 1.887.828 1.887 1.839v7.336c0 1.01-.85 1.838-1.887 1.838s-1.886-.828-1.886-1.838z" stroke="#02A6D8" stroke-width=".703"/><g transform="translate(15.446 27.525)"><mask id="cz" fill="#fff"><use xlink:href="#cy"/></mask><path fill="#FFF" mask="url(#cz)" d="M.568.672h2.694v2.602H.568z"/></g><g transform="translate(15.446 27.525)"><mask id="cB" fill="#fff"><use xlink:href="#cA"/></mask><path fill="#9BD0F2" mask="url(#cB)" d="M.568.672h2.694v2.602H.568z"/></g><path d="M17.361 30.799c-.744 0-1.347-.583-1.347-1.301 0-.72.603-1.3 1.347-1.3s1.347.58 1.347 1.3c0 .718-.603 1.3-1.347 1.3z" stroke="#02A6D8" stroke-width=".703"/><g transform="translate(41.848 28.35)"><mask id="cD" fill="#fff"><use xlink:href="#cC"/></mask><path fill="#FFF" mask="url(#cD)" d="M.032.503h2.693v2.602H.032z"/></g><g transform="translate(41.848 28.35)"><mask id="cF" fill="#fff"><use xlink:href="#cE"/></mask><path fill="#9BD0F2" mask="url(#cF)" d="M.032.503h2.693v2.602H.032z"/></g><path d="M44.573 30.153c0 .72-.604 1.3-1.347 1.3s-1.346-.58-1.346-1.3c0-.718.603-1.3 1.346-1.3.743 0 1.347.582 1.347 1.3z" stroke="#02A6D8" stroke-width=".703"/></g><g transform="translate(119 1393)"><circle stroke="#02A6D8" stroke-width=".703" fill="#02A6D8" cx="30" cy="30" r="30"/><path d="M34.305 28.886l3.564-8.463s2.352.678.903 4.149l-2.485 6.182-1.982-1.868z" fill="#9ED0ED"/><path d="M34.305 28.886l3.564-8.463s2.352.678.903 4.149l-2.485 6.182-1.982-1.868z" stroke="#FFF" stroke-width=".703"/><g transform="translate(17.822 19.294)"><mask id="cH" fill="#fff"><use xlink:href="#cG"/></mask><path fill="#E1F6F9" mask="url(#cH)" d="M.303.642h7.995v20.137H.303z"/></g><path d="M25.87 40.073h-7.496a.25.25 0 0 1-.25-.25V20.186a.25.25 0 0 1 .25-.25h7.496a.25.25 0 0 1 .25.25v19.637a.25.25 0 0 1-.25.25z" fill="#E1F6F9"/><g transform="translate(17.822 21.928)"><mask id="cJ" fill="#fff"><use xlink:href="#cI"/></mask><path d="M.303.076h3.67" fill="#FFF" mask="url(#cJ)"/></g><path d="M18.125 21.98h3.67" stroke="#02A6D8" stroke-width=".703"/><g transform="translate(17.822 23.683)"><mask id="cL" fill="#fff"><use xlink:href="#cK"/></mask><path d="M.303.097h3.67" fill="#FFF" mask="url(#cL)"/></g><path d="M18.125 23.762h3.67" stroke="#02A6D8" stroke-width=".703"/><g transform="translate(17.822 25.44)"><mask id="cN" fill="#fff"><use xlink:href="#cM"/></mask><path d="M.303.12h3.67" fill="#FFF" mask="url(#cN)"/></g><path d="M18.125 25.545h3.67" stroke="#02A6D8" stroke-width=".703"/><g transform="translate(17.822 27.195)"><mask id="cP" fill="#fff"><use xlink:href="#cO"/></mask><path d="M.303.141h3.67" fill="#FFF" mask="url(#cP)"/></g><path d="M18.125 27.327h3.67" stroke="#02A6D8" stroke-width=".703"/><g transform="translate(17.822 28.95)"><mask id="cR" fill="#fff"><use xlink:href="#cQ"/></mask><path d="M.303.163h3.67" fill="#FFF" mask="url(#cR)"/></g><path d="M18.125 29.109h3.67" stroke="#02A6D8" stroke-width=".703"/><g transform="translate(17.822 30.707)"><mask id="cT" fill="#fff"><use xlink:href="#cS"/></mask><path d="M.303.185h3.67" fill="#FFF" mask="url(#cT)"/></g><path d="M18.125 30.891h3.67" stroke="#02A6D8" stroke-width=".703"/><g transform="translate(17.822 32.463)"><mask id="cV" fill="#fff"><use xlink:href="#cU"/></mask><path d="M.303.207h3.67" fill="#FFF" mask="url(#cV)"/></g><path d="M18.125 32.08h3.67" stroke="#02A6D8" stroke-width=".703"/><g transform="translate(17.822 34.218)"><mask id="cX" fill="#fff"><use xlink:href="#cW"/></mask><path d="M.303.23h3.67" fill="#FFF" mask="url(#cX)"/></g><path d="M18.125 33.861h3.67" stroke="#02A6D8" stroke-width=".703"/><g transform="translate(17.822 35.974)"><mask id="cZ" fill="#fff"><use xlink:href="#cY"/></mask><path d="M.303.251h3.67" fill="#FFF" mask="url(#cZ)"/></g><path d="M18.125 35.644h3.67" stroke="#02A6D8" stroke-width=".703"/><g transform="translate(17.822 37.73)"><mask id="db" fill="#fff"><use xlink:href="#da"/></mask><path d="M.303.23h3.67" fill="#FFF" mask="url(#db)"/></g><path d="M18.125 37.426h3.67" stroke="#02A6D8" stroke-width=".703"/><g transform="translate(30.646 19.01)"><mask id="dd" fill="#fff"><use xlink:href="#dc"/></mask><path d="M6.128 18.246a2.203 2.203 0 1 0 4.407-.02 2.204 2.204 0 0 0-4.407.02zM2.432.271c1.608 4.886 3.213 9.766 4.816 14.632.325-.047.63-.12.936-.133 1.874-.073 3.384 1.252 3.597 3.142.198 1.758-1.062 3.423-2.844 3.755-1.68.315-3.353-.68-3.902-2.345A7942.85 7942.85 0 0 1 .22 4.695 3.502 3.502 0 0 1 2.25.335c.055-.022.11-.04.182-.064z" stroke="#FFF" stroke-width="2.109" mask="url(#dd)"/></g><path d="M30.609 39.46a2.206 2.206 0 0 0 2.21-2.21 2.206 2.206 0 0 0-2.203-2.216 2.212 2.212 0 0 0-2.213 2.21 2.211 2.211 0 0 0 2.206 2.216zm1.083-5.538l.726-2.2c.036.094.058.143.074.194.57 1.741 1.142 3.483 1.71 5.226a.431.431 0 0 1 .013.241c-.11.362-.223.724-.354 1.08-.54 1.476-2.035 2.41-3.585 2.249A3.473 3.473 0 0 1 27.2 37.82c-.371-2.269 1.457-4.248 3.737-4.037.248.023.492.089.755.138z" fill="#FFF"/><path d="M37.645 34.635l-5.034-14.394s-2.284.565-1.06 4.102l4.437 13.136s-.369-1.086 1.657-2.844z" fill="#9ED0ED"/><path d="M35.115 29.664a.44.44 0 0 1-.441.448.442.442 0 0 1-.447-.444.452.452 0 0 1 .436-.445.447.447 0 0 1 .452.44" fill="#2F51CA"/><g transform="translate(34.14 28.95)"><mask id="df" fill="#fff"><use xlink:href="#de"/></mask><path fill="#FFF" mask="url(#df)" d="M.084.265h.893v.898H.084z"/></g><path d="M25.87 40.073h-7.496a.25.25 0 0 1-.25-.25V20.186a.25.25 0 0 1 .25-.25h7.496a.25.25 0 0 1 .25.25v19.637a.25.25 0 0 1-.25.25z" stroke="#FFF" stroke-width=".703"/></g><g><circle cx="30" cy="30" r="30" stroke-width=".703" stroke="#02A6D8" transform="translate(30 1393)"/><path d="M42.475 1404.881H78.12v35.644H42.475z"/><path d="M64.415 1422.102l3.634-8.59s2.4.687.921 4.212l-2.533 6.274-2.022-1.896z" fill="#A1D1ED"/><path d="M64.415 1422.102l3.634-8.59s2.4.687.921 4.212l-2.533 6.274-2.022-1.896z" stroke="#0285C2" stroke-width="1.054"/><g transform="translate(47.822 1412.901)"><mask id="dh" fill="#fff"><use xlink:href="#dg"/></mask><path fill="#E3F7F9" mask="url(#dh)" d="M.09.116h8.153v20.44H.09z"/></g><path d="M48.165 1433.457a.254.254 0 0 1-.254-.254v-19.931c0-.141.114-.255.254-.255h7.646c.14 0 .254.114.254.255v19.93c0 .14-.114.255-.254.255h-7.646z" stroke="#4A4A4A" stroke-width="1.054"/><path d="M55.811 1433.457h-7.646a.254.254 0 0 1-.254-.254v-19.931c0-.141.114-.255.254-.255h7.646c.14 0 .254.114.254.255v19.93c0 .14-.114.255-.254.255z" fill="#E3F7F9"/><path d="M55.811 1433.457h-7.646a.254.254 0 0 1-.254-.254v-19.931c0-.141.114-.255.254-.255h7.646c.14 0 .254.114.254.255v19.93c0 .14-.114.255-.254.255z" stroke="#0285C2" stroke-width="1.054"/><g transform="translate(47.822 1414.683)"><mask id="dj" fill="#fff"><use xlink:href="#di"/></mask><path d="M.09.433h3.742" fill="#FFF" mask="url(#dj)"/></g><path d="M47.91 1415.116h3.743" stroke="#0285C2" stroke-width="1.054"/><g transform="translate(47.822 1416.465)"><mask id="dl" fill="#fff"><use xlink:href="#dk"/></mask><path d="M.09.454h3.742" fill="#FFF" mask="url(#dl)"/></g><path d="M47.91 1416.92h3.743" stroke="#0285C2" stroke-width="1.054"/><g transform="translate(47.822 1418.248)"><mask id="dn" fill="#fff"><use xlink:href="#dm"/></mask><path d="M.09.477h3.742" fill="#FFF" mask="url(#dn)"/></g><path d="M47.91 1418.724h3.743" stroke="#0285C2" stroke-width="1.054"/><g transform="translate(47.822 1420.03)"><mask id="dp" fill="#fff"><use xlink:href="#do"/></mask><path d="M.09.5h3.742" fill="#FFF" mask="url(#dp)"/></g><path d="M47.91 1420.53h3.743" stroke="#0285C2" stroke-width="1.054"/><g transform="translate(47.822 1421.812)"><mask id="dr" fill="#fff"><use xlink:href="#dq"/></mask><path d="M.09.522h3.742" fill="#FFF" mask="url(#dr)"/></g><path d="M47.91 1422.334h3.743" stroke="#0285C2" stroke-width="1.054"/><g transform="translate(47.822 1423.594)"><mask id="dt" fill="#fff"><use xlink:href="#ds"/></mask><path d="M.09.544h3.742" fill="#FFF" mask="url(#dt)"/></g><path d="M47.91 1424.138h3.743" stroke="#0285C2" stroke-width="1.054"/><g transform="translate(47.822 1425.376)"><mask id="dv" fill="#fff"><use xlink:href="#du"/></mask><path d="M.09.566h3.742" fill="#FFF" mask="url(#dv)"/></g><path d="M47.91 1425.942h3.743" stroke="#0285C2" stroke-width="1.054"/><g transform="translate(47.822 1427.158)"><mask id="dx" fill="#fff"><use xlink:href="#dw"/></mask><path d="M.09.588h3.742" fill="#FFF" mask="url(#dx)"/></g><path d="M47.91 1427.747h3.743" stroke="#0285C2" stroke-width="1.054"/><g transform="translate(47.822 1428.94)"><mask id="dz" fill="#fff"><use xlink:href="#dy"/></mask><path d="M.09.611h3.742" fill="#FFF" mask="url(#dz)"/></g><path d="M47.91 1429.552h3.743" stroke="#0285C2" stroke-width="1.054"/><g transform="translate(47.822 1430.723)"><mask id="dB" fill="#fff"><use xlink:href="#dA"/></mask><path d="M.09.589h3.742" fill="#FFF" mask="url(#dB)"/></g><path d="M47.91 1431.312h3.743" stroke="#0285C2" stroke-width="1.054"/><g transform="translate(60.297 1412.01)"><mask id="dD" fill="#fff"><use xlink:href="#dC"/></mask><path d="M6.636 18.587a2.241 2.241 0 0 0 2.258 2.241 2.24 2.24 0 0 0 2.237-2.26 2.24 2.24 0 0 0-2.247-2.233 2.243 2.243 0 0 0-2.248 2.252zM2.866.342l4.912 14.852c.332-.048.643-.122.956-.135 1.911-.074 3.452 1.271 3.668 3.189.202 1.785-1.082 3.474-2.9 3.812-1.714.319-3.42-.692-3.98-2.381A8034.12 8034.12 0 0 1 .61 4.832 3.55 3.55 0 0 1 2.681.407c.056-.022.113-.04.186-.065z" stroke="#0285C2" stroke-width="2.109" mask="url(#dD)"/></g><path d="M60.644 1432.835c1.244.003 2.252-1 2.253-2.243a2.244 2.244 0 0 0-2.246-2.25 2.25 2.25 0 0 0-2.257 2.243 2.25 2.25 0 0 0 2.25 2.25zm1.105-5.622c.24-.724.48-1.452.74-2.233.037.095.059.145.076.198.582 1.767 1.165 3.534 1.743 5.303a.436.436 0 0 1 .014.245c-.112.367-.228.735-.36 1.095a3.534 3.534 0 0 1-6.795-.65 3.518 3.518 0 0 1 3.81-4.098c.254.023.503.09.772.14z" fill="#2F51CB"/><g transform="translate(56.733 1424.485)"><mask id="dF" fill="#fff"><use xlink:href="#dE"/></mask><path fill="#0285C2" mask="url(#dF)" d="M.055.495h7.557v9.29H.055z"/></g><path d="M67.82 1427.937l-5.133-14.61s-2.33.574-1.081 4.163l4.525 13.334s-.376-1.102 1.69-2.887z" fill="#A1D1ED"/><path d="M67.82 1427.937l-5.133-14.61s-2.33.574-1.081 4.163l4.525 13.334s-.376-1.102 1.69-2.887z" stroke="#0285C2" stroke-width="1.054"/></g><g transform="translate(119 1474)"><circle stroke="#02A6D8" stroke-width=".703" fill="#02A6D8" cx="30" cy="30" r="30"/><g transform="translate(22.046 27.525)"><mask id="dH" fill="#fff"><use xlink:href="#dG"/></mask><path d="M.434.401h16.48" fill="#FFF" mask="url(#dH)"/></g><path d="M22.48 27.92h16.48" stroke="#02A6D8" stroke-width=".703"/><path d="M22.48 28.626h16.48m-17.332 1.216h16.48m-16.48-.344h16.48m-16.48 1.17h16.48" stroke="#E0F6F9" stroke-width="1.094"/><g transform="translate(21.815 31.65)"><mask id="dJ" fill="#fff"><use xlink:href="#dI"/></mask><path d="M.08.109h16.48" fill="#FFF" mask="url(#dJ)"/></g><path d="M21.895 31.485h16.48" stroke="#02A6D8" stroke-width=".703"/><g transform="translate(22.046 23.168)"><mask id="dL" fill="#fff"><use xlink:href="#dK"/></mask><path fill="#FFF" mask="url(#dL)" d="M.434.15h3.772v13.67H.434z"/></g><g transform="translate(22.046 23.168)"><mask id="dN" fill="#fff"><use xlink:href="#dM"/></mask><path fill="#FFF" mask="url(#dN)" d="M.434.15h3.772v13.67H.434z"/></g><path d="M22.48 35.15v-9.992c0-1.012.848-1.84 1.886-1.84 1.037 0 1.886.828 1.886 1.84v9.991c0 1.011-.849 1.84-1.886 1.84-1.038 0-1.886-.829-1.886-1.84z" stroke="#02A6D8" stroke-width=".703"/><g transform="translate(34.191 23.168)"><mask id="dP" fill="#fff"><use xlink:href="#dO"/></mask><path fill="#FFF" mask="url(#dP)" d="M.199.15H3.97v13.67H.2z"/></g><g transform="translate(34.191 23.168)"><mask id="dR" fill="#fff"><use xlink:href="#dQ"/></mask><path fill="#FFF" mask="url(#dR)" d="M.199.15H3.97v13.67H.2z"/></g><path d="M34.39 35.15v-9.992c0-1.012.848-1.84 1.886-1.84 1.038 0 1.887.828 1.887 1.84v9.991c0 1.011-.85 1.84-1.887 1.84-1.038 0-1.886-.829-1.886-1.84z" stroke="#02A6D8" stroke-width=".703"/><g transform="translate(18.515 24.224)"><mask id="dT" fill="#fff"><use xlink:href="#dS"/></mask><path fill="#FFF" mask="url(#dT)" d="M.193.014h3.772v11.012H.193z"/></g><g transform="translate(18.515 24.224)"><mask id="dV" fill="#fff"><use xlink:href="#dU"/></mask><path fill="#FFF" mask="url(#dV)" d="M.193.014h3.772v11.012H.193z"/></g><path d="M18.708 33.413v-7.336c0-1.011.848-1.839 1.886-1.839 1.037 0 1.886.828 1.886 1.839v7.336c0 1.01-.849 1.838-1.886 1.838-1.038 0-1.886-.828-1.886-1.838z" stroke="#02A6D8" stroke-width=".703"/><g transform="translate(37.723 24.224)"><mask id="dX" fill="#fff"><use xlink:href="#dW"/></mask><path fill="#EEECEC" mask="url(#dX)" d="M.384.014h3.773v11.012H.384z"/></g><path d="M38.107 33.413v-7.336c0-1.011.85-1.839 1.886-1.839 1.038 0 1.887.828 1.887 1.839v7.336c0 1.01-.85 1.838-1.887 1.838s-1.886-.828-1.886-1.838z" stroke="#0191F3" stroke-width="1.094"/><g transform="translate(37.723 24.224)"><mask id="dZ" fill="#fff"><use xlink:href="#dY"/></mask><path fill="#FFF" mask="url(#dZ)" d="M.384.014h3.773v11.012H.384z"/></g><path d="M38.107 33.413v-7.336c0-1.011.85-1.839 1.886-1.839 1.038 0 1.887.828 1.887 1.839v7.336c0 1.01-.85 1.838-1.887 1.838s-1.886-.828-1.886-1.838z" stroke="#02A6D8" stroke-width=".703"/><g transform="translate(15.446 28.119)"><mask id="eb" fill="#fff"><use xlink:href="#ea"/></mask><path fill="#FFF" mask="url(#eb)" d="M.568.078h2.694V2.68H.568z"/></g><g transform="translate(15.446 28.119)"><mask id="ed" fill="#fff"><use xlink:href="#ec"/></mask><path fill="#FFF" mask="url(#ed)" d="M.568.078h2.694V2.68H.568z"/></g><g transform="translate(41.848 28.35)"><mask id="ef" fill="#fff"><use xlink:href="#ee"/></mask><path fill="#FFF" mask="url(#ef)" d="M.032.503h2.693v2.602H.032z"/></g><g transform="translate(41.848 28.35)"><mask id="eh" fill="#fff"><use xlink:href="#eg"/></mask><path fill="#FFF" mask="url(#eh)" d="M.032.503h2.693v2.602H.032z"/></g></g><g transform="translate(31 1141)" stroke="#02A6D8"><circle stroke-width=".7" cx="30" cy="30" r="30"/><g stroke-width="1.12"><path d="M31.51 28.81v6.373M28.637 31.888h6.314"/><path d="M23.128 30.803l8.659-7.394 8.786 7.424s.132.193-.333.193h-1.6v9.618H24.934v-9.618h-1.75c-.385 0-.056-.223-.056-.223zm-.196.31l2.118-.033-.116 9.564h-5.661V19.367l10.554.03v5.692l-6.895 6.024z" stroke-linejoin="round"/><path d="M21.32 21.691h6.19"/></g></g><g stroke="#02A6D8"><path d="M60 1362c16.569 0 30-13.431 30-30 0-16.569-13.431-30-30-30-16.569 0-30 13.431-30 30 0 16.569 13.431 30 30 30z" stroke-width=".7"/><path d="M52.86 1325.992c.004-.67.551-1.21 1.222-1.206 0 0 2.35.487 5.398.508 3.048.021 6.05-.43 6.05-.43.67.006 1.21.553 1.205 1.224l-.127 18.41a.99.99 0 0 1-.997.984s-.797.49-5.654.457c-4.856-.033-6.24-.539-6.24-.539a.991.991 0 0 1-.985-.997l.01-1.338.117-17.073zm6.95-4.978c3.717.026 5.57.782 5.57.782v3.068s-3.447.446-5.653.43c-2.204-.015-5.497-.507-5.497-.507v-3.067s1.863-.732 5.58-.706zm5.005 1.388s-3.645 1.293-10.16-.035l10.16.035zm1.89 8.054S60 1335 52.828 1330.54" stroke-width="1.05" stroke-linejoin="round"/></g><g stroke="#02A6D8"><path d="M64 443c22.091 0 40-17.909 40-40s-17.909-40-40-40-40 17.909-40 40 17.909 40 40 40z" stroke-width=".933"/><path d="M54.479 394.989a1.619 1.619 0 0 1 1.63-1.608s3.134.65 7.198.677c4.063.029 8.066-.572 8.066-.572a1.62 1.62 0 0 1 1.608 1.63l-.17 24.548a1.32 1.32 0 0 1-1.33 1.313s-1.063.653-7.538.608c-6.475-.044-8.321-.718-8.321-.718a1.322 1.322 0 0 1-1.313-1.33l.013-1.783.157-22.765zm9.268-6.637c4.955.035 7.426 1.043 7.426 1.043v4.09s-4.596.595-7.536.575c-2.94-.02-7.33-.678-7.33-.678v-4.09s2.484-.974 7.44-.94zm6.673 1.85s-4.86 1.724-13.546-.045l13.546.045zm2.52 10.74S64 407 54.437 401.053" stroke-width="1.4" stroke-linejoin="round"/></g><g transform="translate(24 134)" stroke="#02A6D8"><circle stroke-width=".933" cx="40" cy="40" r="40"/><g stroke-width="1.493"><path d="M42.014 38.413v8.497M38.183 42.518H46.6"/><path d="M30.837 41.071l11.545-9.859 11.716 9.899s.175.257-.444.257H51.52v12.824H33.245V41.368h-2.332c-.514 0-.076-.297-.076-.297zm-.261.413l2.824-.044-.155 12.752h-7.548V25.823l14.072.04v7.589l-9.193 8.032z" stroke-linejoin="round"/><path d="M28.428 28.922h8.252"/></g></g><g transform="translate(153 134)"><circle stroke="#02A6D8" stroke-width=".933" fill="#02A6D8" cx="40" cy="40" r="40"/><g stroke="#FFF" stroke-width="1.493"><path d="M42.014 38.413v8.497M38.183 42.518H46.6"/><path d="M30.913 41.368c-.514 0-.076-.297-.076-.297l11.545-9.859 11.716 9.899s.175.257-.444.257H51.52v12.824H33.245V41.368h-2.332zm-.337.116l2.824-.044-.155 12.752h-7.548V25.823l14.072.04v7.589l-9.193 8.032z" stroke-linejoin="round"/><path d="M28.428 28.922h8.252"/></g></g><g><g transform="translate(24 706)"><path d="M37.18 29.43c0-.405.328-.733.733-.733h1.269v-1.27a.734.734 0 1 1 1.466 0v1.27h1.27a.733.733 0 0 1 0 1.467h-1.27v1.27a.734.734 0 1 1-1.466 0v-1.27h-1.27a.734.734 0 0 1-.733-.733zm17.65 24.836a.733.733 0 0 1-.734.734H25.733a.733.733 0 0 1 0-1.467h2.812V29.43c0-.406.329-.734.734-.734h5.259A5.436 5.436 0 0 1 39.915 24a5.436 5.436 0 0 1 5.378 4.697h5.259a.733.733 0 0 1 .733.734v24.102h2.811c.405 0 .734.328.734.733zM35.955 29.431a3.966 3.966 0 0 0 3.96 3.963 3.966 3.966 0 0 0 3.96-3.963 3.966 3.966 0 0 0-3.96-3.964 3.966 3.966 0 0 0-3.96 3.964zm3.227 18.817H35.4v5.285h3.782v-5.285zm5.248 0h-3.782v5.285h3.782v-5.285zm5.388-18.084h-4.525a5.437 5.437 0 0 1-5.378 4.697 5.437 5.437 0 0 1-5.377-4.697h-4.526v23.369h3.921v-6.019c0-.405.329-.734.734-.734h10.497c.405 0 .733.329.733.734v6.019h3.921V30.164zm-4.864 6.468h2.499c.405 0 .733.329.733.734v6.541a.733.733 0 0 1-.733.734h-2.499a.733.733 0 0 1-.733-.734v-6.54c0-.406.328-.735.733-.735zm.734 6.541h1.032V38.1h-1.032v5.073zm-3.79-5.807v6.541a.733.733 0 0 1-.734.734h-2.498a.733.733 0 0 1-.733-.734v-6.54c0-.406.328-.735.733-.735h2.498c.405 0 .734.329.734.734zm-2.499 5.807h1.032V38.1H39.4v5.073zm-3.79-5.807v6.541a.733.733 0 0 1-.733.734h-2.498a.733.733 0 0 1-.734-.734v-6.54c0-.406.329-.735.734-.735h2.498c.405 0 .733.329.733.734zm-2.498 5.807h1.032V38.1H33.11v5.073z" fill="#00A5DA"/><circle stroke="#00A5DA" cx="40" cy="40" r="40"/></g></g><g><g transform="translate(31 1554)"><path d="M27.885 22.073a.55.55 0 0 1 .55-.55h.952v-.953a.55.55 0 1 1 1.1 0v.953h.951a.55.55 0 0 1 0 1.1h-.952v.953a.55.55 0 1 1-1.1 0v-.953h-.952a.55.55 0 0 1-.55-.55zM41.122 40.7a.55.55 0 0 1-.55.55H19.3a.55.55 0 0 1 0-1.1h2.11V22.072a.55.55 0 0 1 .549-.55h3.944A4.077 4.077 0 0 1 29.936 18a4.077 4.077 0 0 1 4.034 3.523h3.944a.55.55 0 0 1 .55.55v18.076h2.108a.55.55 0 0 1 .55.55zM26.966 22.073a2.975 2.975 0 0 0 2.97 2.972 2.975 2.975 0 0 0 2.97-2.972 2.975 2.975 0 0 0-2.97-2.972 2.975 2.975 0 0 0-2.97 2.972zm2.42 14.113H26.55v3.963h2.836v-3.963zm3.937 0h-2.837v3.963h2.837v-3.963zm4.04-13.563H33.97a4.077 4.077 0 0 1-4.034 3.523 4.077 4.077 0 0 1-4.033-3.523H22.51V40.15h2.941v-4.514a.55.55 0 0 1 .55-.55h7.873a.55.55 0 0 1 .55.55v4.514h2.94V22.623zm-3.647 4.851h1.874a.55.55 0 0 1 .55.55v4.906a.55.55 0 0 1-.55.55h-1.874a.55.55 0 0 1-.55-.55v-4.905a.55.55 0 0 1 .55-.55zm.55 4.906h.774v-3.805h-.774v3.805zm-2.843-4.355v4.905a.55.55 0 0 1-.55.55H29a.55.55 0 0 1-.55-.55v-4.905a.55.55 0 0 1 .55-.55h1.873a.55.55 0 0 1 .55.55zM29.55 32.38h.774v-3.805h-.774v3.805zm-2.842-4.355v4.905a.55.55 0 0 1-.55.55h-1.874a.55.55 0 0 1-.55-.55v-4.905a.55.55 0 0 1 .55-.55h1.874a.55.55 0 0 1 .55.55zm-1.874 4.355h.774v-3.805h-.774v3.805z" fill="#00A5DA"/><circle stroke="#02A6D8" stroke-width=".7" cx="30" cy="30" r="30"/></g></g><g><g transform="translate(153 707)"><circle stroke="#02A6D8" fill="#02A6D8" cx="40" cy="40" r="40"/><path d="M37.18 29.43c0-.405.328-.733.733-.733h1.269v-1.27a.734.734 0 1 1 1.466 0v1.27h1.27a.733.733 0 0 1 0 1.467h-1.27v1.27a.734.734 0 1 1-1.466 0v-1.27h-1.27a.734.734 0 0 1-.733-.733zm17.65 24.836a.733.733 0 0 1-.734.734H25.733a.733.733 0 0 1 0-1.467h2.812V29.43c0-.406.329-.734.734-.734h5.259A5.436 5.436 0 0 1 39.915 24a5.436 5.436 0 0 1 5.378 4.697h5.259a.733.733 0 0 1 .733.734v24.102h2.811c.405 0 .734.328.734.733zM35.955 29.431a3.966 3.966 0 0 0 3.96 3.963 3.966 3.966 0 0 0 3.96-3.963 3.966 3.966 0 0 0-3.96-3.964 3.966 3.966 0 0 0-3.96 3.964zm3.227 18.817H35.4v5.285h3.782v-5.285zm5.248 0h-3.782v5.285h3.782v-5.285zm5.388-18.084h-4.525a5.437 5.437 0 0 1-5.378 4.697 5.437 5.437 0 0 1-5.377-4.697h-4.526v23.369h3.921v-6.019c0-.405.329-.734.734-.734h10.497c.405 0 .733.329.733.734v6.019h3.921V30.164zm-4.864 6.468h2.499c.405 0 .733.329.733.734v6.541a.733.733 0 0 1-.733.734h-2.499a.733.733 0 0 1-.733-.734v-6.54c0-.406.328-.735.733-.735zm.734 6.541h1.032V38.1h-1.032v5.073zm-3.79-5.807v6.541a.733.733 0 0 1-.734.734h-2.498a.733.733 0 0 1-.733-.734v-6.54c0-.406.328-.735.733-.735h2.498c.405 0 .734.329.734.734zm-2.499 5.807h1.032V38.1H39.4v5.073zm-3.79-5.807v6.541a.733.733 0 0 1-.733.734h-2.498a.733.733 0 0 1-.734-.734v-6.54c0-.406.329-.735.734-.735h2.498c.405 0 .733.329.733.734zm-2.498 5.807h1.032V38.1H33.11v5.073z" fill="#FFF"/></g></g><g><g transform="translate(119 1554)"><circle stroke="#02A6D8" fill="#02A6D8" cx="30" cy="30" r="30"/><path d="M27.885 22.073a.55.55 0 0 1 .55-.55h.952v-.953a.55.55 0 1 1 1.1 0v.953h.951a.55.55 0 0 1 0 1.1h-.952v.953a.55.55 0 1 1-1.1 0v-.953h-.952a.55.55 0 0 1-.55-.55zM41.122 40.7a.55.55 0 0 1-.55.55H19.3a.55.55 0 0 1 0-1.1h2.11V22.072a.55.55 0 0 1 .549-.55h3.944A4.077 4.077 0 0 1 29.936 18a4.077 4.077 0 0 1 4.034 3.523h3.944a.55.55 0 0 1 .55.55v18.076h2.108a.55.55 0 0 1 .55.55zM26.966 22.073a2.975 2.975 0 0 0 2.97 2.972 2.975 2.975 0 0 0 2.97-2.972 2.975 2.975 0 0 0-2.97-2.972 2.975 2.975 0 0 0-2.97 2.972zm2.42 14.113H26.55v3.963h2.836v-3.963zm3.937 0h-2.837v3.963h2.837v-3.963zm4.04-13.563H33.97a4.077 4.077 0 0 1-4.034 3.523 4.077 4.077 0 0 1-4.033-3.523H22.51V40.15h2.941v-4.514a.55.55 0 0 1 .55-.55h7.873a.55.55 0 0 1 .55.55v4.514h2.94V22.623zm-3.647 4.851h1.874a.55.55 0 0 1 .55.55v4.906a.55.55 0 0 1-.55.55h-1.874a.55.55 0 0 1-.55-.55v-4.905a.55.55 0 0 1 .55-.55zm.55 4.906h.774v-3.805h-.774v3.805zm-2.843-4.355v4.905a.55.55 0 0 1-.55.55H29a.55.55 0 0 1-.55-.55v-4.905a.55.55 0 0 1 .55-.55h1.873a.55.55 0 0 1 .55.55zM29.55 32.38h.774v-3.805h-.774v3.805zm-2.842-4.355v4.905a.55.55 0 0 1-.55.55h-1.874a.55.55 0 0 1-.55-.55v-4.905a.55.55 0 0 1 .55-.55h1.874a.55.55 0 0 1 .55.55zm-1.874 4.355h.774v-3.805h-.774v3.805z" fill="#FFF"/></g></g><g transform="translate(24 820)"><circle stroke="#00A5DA" cx="40" cy="40" r="40"/><g transform="translate(23 28)"><use stroke="#00A5DA" mask="url(#ei)" stroke-width="2" xlink:href="#a"/><use stroke="#00A5DA" mask="url(#ej)" stroke-width="2" xlink:href="#b"/><use stroke="#00A5DA" mask="url(#ek)" stroke-width="2" xlink:href="#c"/><use stroke="#00A5DA" mask="url(#el)" stroke-width="2" xlink:href="#d"/><use stroke="#00A5DA" mask="url(#em)" stroke-width="2" xlink:href="#e"/><use stroke="#00A5DA" mask="url(#en)" stroke-width="2" xlink:href="#f"/><use stroke="#00A5DA" mask="url(#eo)" stroke-width="2" xlink:href="#g"/><use stroke="#00A5DA" mask="url(#ep)" stroke-width="2" xlink:href="#h"/><path fill="#00A5DA" d="M0 24h35v1H0zM5 16h2v1H5zM28 16h2v1h-2zM5 18h2v1H5zM28 18h2v1h-2zM5 20h2v1H5zM28 20h2v1h-2zM15 3h5v1h-5z"/><path fill="#00A5DA" d="M17 1h1v5h-1zM17 17h1v7h-1z"/></g></g><g transform="translate(31 1635)"><circle stroke="#02A6D8" stroke-width=".7" cx="30" cy="30" r="30"/><g transform="translate(13 18)"><use stroke="#00A5DA" mask="url(#eq)" stroke-width="2" xlink:href="#i"/><use stroke="#00A5DA" mask="url(#er)" stroke-width="2" xlink:href="#j"/><use stroke="#00A5DA" mask="url(#es)" stroke-width="2" xlink:href="#k"/><use stroke="#00A5DA" mask="url(#et)" stroke-width="2" xlink:href="#l"/><use stroke="#00A5DA" mask="url(#eu)" stroke-width="2" xlink:href="#m"/><use stroke="#00A5DA" mask="url(#ev)" stroke-width="2" xlink:href="#n"/><use stroke="#00A5DA" mask="url(#ew)" stroke-width="2" xlink:href="#o"/><use stroke="#00A5DA" mask="url(#ex)" stroke-width="2" xlink:href="#p"/><path fill="#00A5DA" d="M0 24h35v1H0zM5 16h2v1H5zM28 16h2v1h-2zM5 18h2v1H5zM28 18h2v1h-2zM5 20h2v1H5zM28 20h2v1h-2zM15 3h5v1h-5z"/><path fill="#00A5DA" d="M17 1h1v5h-1zM17 17h1v7h-1z"/></g></g><g transform="translate(151 820)"><circle stroke="#00A5DA" fill="#02A6D8" cx="40" cy="40" r="40"/><g transform="translate(23 28)" stroke="#FFF" stroke-width="2"><use mask="url(#ey)" xlink:href="#q"/><use mask="url(#ez)" xlink:href="#r"/><use mask="url(#eA)" xlink:href="#s"/><use mask="url(#eB)" xlink:href="#t"/><use mask="url(#eC)" xlink:href="#u"/><use mask="url(#eD)" xlink:href="#v"/><use mask="url(#eE)" xlink:href="#w"/><use mask="url(#eF)" xlink:href="#x"/><use mask="url(#eG)" fill="#00A5DA" xlink:href="#y"/><use mask="url(#eH)" fill="#00A5DA" xlink:href="#z"/><use mask="url(#eI)" fill="#00A5DA" xlink:href="#A"/><use mask="url(#eJ)" fill="#00A5DA" xlink:href="#B"/><use mask="url(#eK)" fill="#00A5DA" xlink:href="#C"/><use mask="url(#eL)" fill="#00A5DA" xlink:href="#D"/><use mask="url(#eM)" fill="#00A5DA" xlink:href="#E"/><use mask="url(#eN)" fill="#00A5DA" xlink:href="#F"/><use mask="url(#eO)" fill="#00A5DA" xlink:href="#G"/><use mask="url(#eP)" fill="#00A5DA" xlink:href="#H"/></g></g><g transform="translate(119 1635)"><circle stroke="#00A5DA" fill="#02A6D8" cx="30" cy="30" r="30"/><g transform="translate(13 18)" stroke="#FFF" stroke-width="2"><use mask="url(#eQ)" xlink:href="#I"/><use mask="url(#eR)" xlink:href="#J"/><use mask="url(#eS)" xlink:href="#K"/><use mask="url(#eT)" xlink:href="#L"/><use mask="url(#eU)" xlink:href="#M"/><use mask="url(#eV)" xlink:href="#N"/><use mask="url(#eW)" xlink:href="#O"/><use mask="url(#eX)" xlink:href="#P"/><use mask="url(#eY)" fill="#00A5DA" xlink:href="#Q"/><use mask="url(#eZ)" fill="#00A5DA" xlink:href="#R"/><use mask="url(#fa)" fill="#00A5DA" xlink:href="#S"/><use mask="url(#fb)" fill="#00A5DA" xlink:href="#T"/><use mask="url(#fc)" fill="#00A5DA" xlink:href="#U"/><use mask="url(#fd)" fill="#00A5DA" xlink:href="#V"/><use mask="url(#fe)" fill="#00A5DA" xlink:href="#W"/><use mask="url(#ff)" fill="#00A5DA" xlink:href="#X"/><use mask="url(#fg)" fill="#00A5DA" xlink:href="#Y"/><use mask="url(#fh)" fill="#00A5DA" xlink:href="#Z"/></g></g></g></svg>